M48
; DRILL file {KiCad 8.0.5} date 2024-10-03T12:10:21+0900
; FORMAT={-:-/ absolute / inch / decimal}
; #@! TF.CreationDate,2024-10-03T12:10:21+09:00
; #@! TF.GenerationSoftware,Kicad,Pcbnew,8.0.5
; #@! TF.FileFunction,Plated,1,2,PTH
FMAT,2
INCH
; #@! TA.AperFunction,Plated,PTH,ViaDrill
T1C0.0118
; #@! TA.AperFunction,Plated,PTH,ComponentDrill
T2C0.0315
; #@! TA.AperFunction,Plated,PTH,ComponentDrill
T3C0.0354
; #@! TA.AperFunction,Plated,PTH,ComponentDrill
T4C0.0374
; #@! TA.AperFunction,Plated,PTH,ComponentDrill
T5C0.0394
; #@! TA.AperFunction,Plated,PTH,ComponentDrill
T6C0.1378
%
G90
G05
T1
X4.5669Y-4.1929
X4.5669Y-4.2913
X4.7047Y-4.1929
X4.7047Y-4.2913
T2
X4.0504Y-3.7008
X4.0504Y-3.8386
X4.0504Y-3.9764
X4.0504Y-4.1142
X4.3504Y-3.7008
X4.3504Y-3.8386
X4.3504Y-3.9764
X4.3504Y-4.1142
X4.4835Y-3.8929
X4.4835Y-3.9929
X4.4835Y-4.0929
X4.4835Y-4.1929
X4.4835Y-4.2929
X4.4835Y-4.3929
X4.4835Y-4.4929
X4.4835Y-4.5929
X4.7835Y-3.8929
X4.7835Y-3.9929
X4.7835Y-4.0929
X4.7835Y-4.1929
X4.7835Y-4.2929
X4.7835Y-4.3929
X4.7835Y-4.4929
X4.7835Y-4.5929
T3
X3.8081Y-3.1299
X3.8081Y-3.563
X3.8081Y-3.9764
X3.8081Y-4.3898
X3.9081Y-3.1299
X3.9081Y-3.563
X3.9081Y-3.9764
X3.9081Y-4.3898
T4
X6.0295Y-4.0256
X6.0295Y-4.124
X6.0295Y-4.2224
X6.0295Y-4.3209
T5
X3.4193Y-3.0807
X3.4193Y-3.1791
X3.4193Y-3.5138
X3.4193Y-3.6122
X3.4193Y-3.9272
X3.4193Y-4.0256
X3.4193Y-4.3406
X3.4193Y-4.439
X4.3307Y-3.0687
X4.3307Y-3.1687
X4.3307Y-3.2687
X5.315Y-3.0699
X5.315Y-3.1699
X5.315Y-3.2699
X6.0295Y-3.4646
X6.0295Y-3.563
T6
X3.2677Y-2.815
X3.2677Y-4.7441
X6.1614Y-2.815
X6.1614Y-4.7441
M30
