%TF.GenerationSoftware,KiCad,Pcbnew,8.0.5*%
%TF.CreationDate,2024-10-03T12:10:16+09:00*%
%TF.ProjectId,air_test1,6169725f-7465-4737-9431-2e6b69636164,rev?*%
%TF.SameCoordinates,Original*%
%TF.FileFunction,Legend,Top*%
%TF.FilePolarity,Positive*%
%FSLAX46Y46*%
G04 Gerber Fmt 4.6, Leading zero omitted, Abs format (unit mm)*
G04 Created by KiCad (PCBNEW 8.0.5) date 2024-10-03 12:10:16*
%MOMM*%
%LPD*%
G01*
G04 APERTURE LIST*
G04 Aperture macros list*
%AMRoundRect*
0 Rectangle with rounded corners*
0 $1 Rounding radius*
0 $2 $3 $4 $5 $6 $7 $8 $9 X,Y pos of 4 corners*
0 Add a 4 corners polygon primitive as box body*
4,1,4,$2,$3,$4,$5,$6,$7,$8,$9,$2,$3,0*
0 Add four circle primitives for the rounded corners*
1,1,$1+$1,$2,$3*
1,1,$1+$1,$4,$5*
1,1,$1+$1,$6,$7*
1,1,$1+$1,$8,$9*
0 Add four rect primitives between the rounded corners*
20,1,$1+$1,$2,$3,$4,$5,0*
20,1,$1+$1,$4,$5,$6,$7,0*
20,1,$1+$1,$6,$7,$8,$9,0*
20,1,$1+$1,$8,$9,$2,$3,0*%
G04 Aperture macros list end*
%ADD10C,0.100000*%
%ADD11C,0.312500*%
%ADD12C,0.150000*%
%ADD13C,0.200000*%
%ADD14C,0.120000*%
%ADD15R,1.600000X1.600000*%
%ADD16O,1.600000X1.600000*%
%ADD17RoundRect,0.250000X-0.750000X0.600000X-0.750000X-0.600000X0.750000X-0.600000X0.750000X0.600000X0*%
%ADD18O,2.000000X1.700000*%
%ADD19R,1.700000X1.700000*%
%ADD20O,1.700000X1.700000*%
%ADD21RoundRect,0.250000X0.750000X-0.600000X0.750000X0.600000X-0.750000X0.600000X-0.750000X-0.600000X0*%
%ADD22RoundRect,0.250000X0.725000X-0.600000X0.725000X0.600000X-0.725000X0.600000X-0.725000X-0.600000X0*%
%ADD23O,1.950000X1.700000*%
%ADD24C,1.600000*%
%ADD25R,1.800000X1.800000*%
%ADD26C,1.800000*%
%ADD27C,3.900000*%
%ADD28C,7.000000*%
G04 APERTURE END LIST*
D10*
G36*
X150043963Y-87689106D02*
G01*
X150290648Y-87689106D01*
X150290648Y-87439002D01*
X150458199Y-87439002D01*
X150458199Y-87689106D01*
X150706106Y-87689106D01*
X150706106Y-87861053D01*
X150458199Y-87861053D01*
X150458199Y-88111158D01*
X150290648Y-88111158D01*
X150290648Y-87861053D01*
X150043963Y-87861053D01*
X150043963Y-87689106D01*
G37*
G36*
X146817634Y-102205059D02*
G01*
X145397606Y-101837962D01*
X146817634Y-101837962D01*
X146817634Y-102205059D01*
G37*
G36*
X148370227Y-111308420D02*
G01*
X144280253Y-111308420D01*
X144280253Y-110058443D01*
X144660481Y-110058443D01*
X144732974Y-110119664D01*
X144843205Y-110233062D01*
X144940199Y-110360663D01*
X145023954Y-110502468D01*
X145094472Y-110658477D01*
X145151753Y-110828690D01*
X145188046Y-110975087D01*
X145551479Y-110975087D01*
X145551479Y-110893021D01*
X145552120Y-110824065D01*
X145560495Y-110667611D01*
X145592512Y-110521528D01*
X145595068Y-110516371D01*
X145711946Y-110419678D01*
X145723058Y-110417372D01*
X145869117Y-110405390D01*
X146026111Y-110401539D01*
X146182358Y-110400628D01*
X147990000Y-110400628D01*
X147990000Y-109567515D01*
X144660481Y-109567515D01*
X144660481Y-110058443D01*
X144280253Y-110058443D01*
X144280253Y-107652163D01*
X144613586Y-107652163D01*
X144619788Y-107789090D01*
X144644212Y-107941018D01*
X144691988Y-108087404D01*
X144724017Y-108152903D01*
X144811439Y-108278557D01*
X144923531Y-108381960D01*
X144952289Y-108402384D01*
X145087690Y-108478278D01*
X145234940Y-108524110D01*
X145357430Y-108540379D01*
X145507280Y-108549896D01*
X145667250Y-108552686D01*
X145785952Y-108552686D01*
X145785952Y-107806769D01*
X145460621Y-107806769D01*
X145301925Y-107799150D01*
X145158736Y-107760607D01*
X145149509Y-107754559D01*
X145082533Y-107619190D01*
X145082807Y-107607564D01*
X145152875Y-107478506D01*
X145215832Y-107449930D01*
X145366099Y-107431612D01*
X145454535Y-107438975D01*
X145605203Y-107475039D01*
X145746345Y-107525528D01*
X145884870Y-107585484D01*
X145930526Y-107607209D01*
X146081104Y-107684109D01*
X146239047Y-107768866D01*
X146379368Y-107845987D01*
X146538429Y-107934726D01*
X146716231Y-108035082D01*
X146845177Y-108108441D01*
X146982452Y-108186963D01*
X147128056Y-108270649D01*
X147281989Y-108359498D01*
X147444251Y-108453510D01*
X147614842Y-108552686D01*
X147990000Y-108552686D01*
X147990000Y-106720865D01*
X147521053Y-106720865D01*
X147521053Y-107633845D01*
X147390851Y-107548462D01*
X147206345Y-107428555D01*
X147034796Y-107318451D01*
X146876205Y-107218148D01*
X146730571Y-107127647D01*
X146597894Y-107046947D01*
X146441147Y-106954594D01*
X146277607Y-106863658D01*
X146128869Y-106790474D01*
X146108386Y-106781638D01*
X145966890Y-106727643D01*
X145809216Y-106682763D01*
X145655847Y-106655835D01*
X145506782Y-106646859D01*
X145411986Y-106650843D01*
X145256229Y-106676990D01*
X145113376Y-106727540D01*
X144983425Y-106802492D01*
X144866378Y-106901849D01*
X144850825Y-106917976D01*
X144755782Y-107044090D01*
X144684931Y-107193344D01*
X144643457Y-107339696D01*
X144619758Y-107503048D01*
X144613586Y-107652163D01*
X144280253Y-107652163D01*
X144280253Y-104781332D01*
X144613586Y-104781332D01*
X144615100Y-104868367D01*
X144627207Y-105028834D01*
X144656634Y-105193126D01*
X144702541Y-105332733D01*
X144785778Y-105475959D01*
X144847333Y-105538863D01*
X144978045Y-105617334D01*
X145124951Y-105663606D01*
X145275037Y-105686636D01*
X145447431Y-105694312D01*
X145739057Y-105694312D01*
X145739057Y-104861933D01*
X145430579Y-104861933D01*
X145299722Y-104858209D01*
X145148478Y-104830425D01*
X145082533Y-104711723D01*
X145142616Y-104598883D01*
X145241659Y-104570868D01*
X145388813Y-104562979D01*
X145587383Y-104562979D01*
X145696366Y-104566616D01*
X145843838Y-104593754D01*
X145949351Y-104694870D01*
X145962102Y-104760945D01*
X145971618Y-104912952D01*
X145973531Y-105061967D01*
X146442477Y-105061967D01*
X146443118Y-105032180D01*
X146450812Y-104879544D01*
X146474717Y-104734438D01*
X146484921Y-104708896D01*
X146591953Y-104606210D01*
X146724386Y-104571254D01*
X146872588Y-104562979D01*
X147104863Y-104562979D01*
X147197245Y-104563731D01*
X147346911Y-104569741D01*
X147493942Y-104593754D01*
X147567948Y-104721981D01*
X147508597Y-104836287D01*
X147380676Y-104857700D01*
X147227962Y-104861933D01*
X146676950Y-104861933D01*
X146676950Y-105694312D01*
X146934870Y-105694312D01*
X146963680Y-105694243D01*
X147125178Y-105690911D01*
X147288979Y-105680708D01*
X147443722Y-105660718D01*
X147588464Y-105623237D01*
X147711088Y-105556105D01*
X147820032Y-105452434D01*
X147907201Y-105326482D01*
X147915180Y-105312211D01*
X147975594Y-105168831D01*
X148012070Y-105018805D01*
X148030688Y-104870101D01*
X148036894Y-104705129D01*
X148034193Y-104599423D01*
X148018634Y-104443020D01*
X147984598Y-104285787D01*
X147926252Y-104134333D01*
X147846697Y-104008066D01*
X147736210Y-103899091D01*
X147601653Y-103821458D01*
X147484234Y-103781707D01*
X147326299Y-103750564D01*
X147162946Y-103734947D01*
X147002281Y-103730600D01*
X146970137Y-103730691D01*
X146792840Y-103735053D01*
X146642230Y-103745958D01*
X146482930Y-103770676D01*
X146341360Y-103823656D01*
X146299100Y-103854887D01*
X146201326Y-103967647D01*
X146137662Y-104105757D01*
X146111318Y-104059572D01*
X146021114Y-103934457D01*
X145908318Y-103837578D01*
X145814308Y-103797392D01*
X145661259Y-103768816D01*
X145500188Y-103761374D01*
X145448697Y-103762204D01*
X145279747Y-103778183D01*
X145128328Y-103814497D01*
X144976745Y-103880901D01*
X144848060Y-103973866D01*
X144806157Y-104016945D01*
X144724412Y-104143710D01*
X144672205Y-104281612D01*
X144636484Y-104446510D01*
X144619311Y-104604547D01*
X144613586Y-104781332D01*
X144280253Y-104781332D01*
X144280253Y-101005582D01*
X144660481Y-101005582D01*
X144660481Y-101837962D01*
X144660481Y-102108339D01*
X146817634Y-102827145D01*
X147380369Y-102827145D01*
X147380369Y-101837962D01*
X147990000Y-101837962D01*
X147990000Y-101005582D01*
X147380369Y-101005582D01*
X147380369Y-100768911D01*
X146817634Y-100768911D01*
X146817634Y-101005582D01*
X144660481Y-101005582D01*
X144280253Y-101005582D01*
X144280253Y-100435578D01*
X148370227Y-100435578D01*
X148370227Y-111308420D01*
G37*
D11*
G36*
X92330256Y-111001974D02*
G01*
X92325999Y-111141570D01*
X92321992Y-111286141D01*
X92318836Y-111423171D01*
X92317166Y-111559830D01*
X92317166Y-112016564D01*
X91715718Y-112016564D01*
X92028349Y-111439541D01*
X92073994Y-111356536D01*
X92130340Y-111246675D01*
X92190017Y-111122788D01*
X92243819Y-111005437D01*
X92300069Y-110877782D01*
X92334263Y-110877782D01*
X92330256Y-111001974D01*
G37*
G36*
X92311137Y-110146504D02*
G01*
X92440604Y-110155949D01*
X92567210Y-110175889D01*
X92690953Y-110206324D01*
X92811834Y-110247254D01*
X92929853Y-110298679D01*
X93045010Y-110360598D01*
X93088485Y-110387188D01*
X93192225Y-110458588D01*
X93288900Y-110537025D01*
X93378508Y-110622498D01*
X93461050Y-110715008D01*
X93536527Y-110814553D01*
X93604937Y-110921135D01*
X93630964Y-110966931D01*
X93688685Y-111083423D01*
X93735912Y-111202778D01*
X93772644Y-111324995D01*
X93798881Y-111450074D01*
X93814623Y-111578015D01*
X93819870Y-111708818D01*
X93819031Y-111761483D01*
X93809585Y-111891142D01*
X93789645Y-112017938D01*
X93759210Y-112141872D01*
X93718281Y-112262944D01*
X93666856Y-112381154D01*
X93604937Y-112496502D01*
X93578421Y-112539979D01*
X93507184Y-112643746D01*
X93428881Y-112740477D01*
X93343513Y-112830172D01*
X93251078Y-112912831D01*
X93151577Y-112988453D01*
X93045010Y-113057039D01*
X92999291Y-113083066D01*
X92882989Y-113140788D01*
X92763825Y-113188014D01*
X92641799Y-113224746D01*
X92516911Y-113250983D01*
X92389161Y-113266725D01*
X92258548Y-113271973D01*
X92205959Y-113271133D01*
X92076492Y-113261688D01*
X91949886Y-113241748D01*
X91826143Y-113211313D01*
X91705262Y-113170383D01*
X91587243Y-113118958D01*
X91472086Y-113057039D01*
X91428611Y-113030449D01*
X91324871Y-112959048D01*
X91228196Y-112880612D01*
X91138588Y-112795139D01*
X91056046Y-112702629D01*
X90980569Y-112603084D01*
X90912159Y-112496502D01*
X90886132Y-112450706D01*
X90828411Y-112334214D01*
X90781184Y-112214859D01*
X90744452Y-112092642D01*
X90732080Y-112033661D01*
X91406751Y-112033661D01*
X91406751Y-112295001D01*
X92317166Y-112295001D01*
X92317166Y-112791425D01*
X92651779Y-112791425D01*
X92651779Y-112295001D01*
X92964410Y-112295001D01*
X92964410Y-112016564D01*
X92651779Y-112016564D01*
X92651779Y-110613389D01*
X92190160Y-110613389D01*
X91416182Y-112016564D01*
X91406751Y-112033661D01*
X90732080Y-112033661D01*
X90718215Y-111967563D01*
X90702473Y-111839622D01*
X90697226Y-111708818D01*
X90698065Y-111656154D01*
X90707511Y-111526495D01*
X90727451Y-111399699D01*
X90757886Y-111275764D01*
X90798815Y-111154692D01*
X90850240Y-111036483D01*
X90912159Y-110921135D01*
X90938675Y-110877658D01*
X91009912Y-110773891D01*
X91088215Y-110677160D01*
X91173583Y-110587465D01*
X91266018Y-110504806D01*
X91365519Y-110429184D01*
X91472086Y-110360598D01*
X91517805Y-110334571D01*
X91634107Y-110276849D01*
X91753271Y-110229623D01*
X91875297Y-110192891D01*
X92000185Y-110166654D01*
X92127935Y-110150912D01*
X92258548Y-110145664D01*
X92311137Y-110146504D01*
G37*
G36*
X94214274Y-113666987D02*
G01*
X90302822Y-113666987D01*
X90302822Y-111709429D01*
X90580600Y-111709429D01*
X90581499Y-111766120D01*
X90591615Y-111905677D01*
X90612971Y-112042134D01*
X90645568Y-112175489D01*
X90689405Y-112305744D01*
X90744481Y-112432898D01*
X90810799Y-112556952D01*
X90839120Y-112603811D01*
X90915309Y-112715575D01*
X90999190Y-112819646D01*
X91090763Y-112916026D01*
X91190028Y-113004713D01*
X91296986Y-113085708D01*
X91411636Y-113159010D01*
X91460883Y-113186886D01*
X91586150Y-113248707D01*
X91714488Y-113299288D01*
X91845896Y-113338628D01*
X91980376Y-113366729D01*
X92117926Y-113383589D01*
X92258548Y-113389209D01*
X92315165Y-113388310D01*
X92454558Y-113378194D01*
X92590880Y-113356837D01*
X92724132Y-113324241D01*
X92854312Y-113280404D01*
X92981422Y-113225327D01*
X93105460Y-113159010D01*
X93152243Y-113130612D01*
X93263816Y-113054233D01*
X93367697Y-112970161D01*
X93463885Y-112878397D01*
X93552382Y-112778941D01*
X93633186Y-112671792D01*
X93706297Y-112556952D01*
X93734173Y-112507702D01*
X93795994Y-112382409D01*
X93846575Y-112254014D01*
X93885916Y-112122519D01*
X93914016Y-111987923D01*
X93930876Y-111850226D01*
X93936496Y-111709429D01*
X93935597Y-111652664D01*
X93925481Y-111512943D01*
X93904125Y-111376352D01*
X93871528Y-111242892D01*
X93827691Y-111112563D01*
X93772615Y-110985364D01*
X93706297Y-110861296D01*
X93677976Y-110814436D01*
X93601787Y-110702673D01*
X93517906Y-110598601D01*
X93426333Y-110502222D01*
X93327068Y-110413535D01*
X93220110Y-110332540D01*
X93105460Y-110259237D01*
X93056213Y-110231361D01*
X92930946Y-110169540D01*
X92802608Y-110118960D01*
X92671200Y-110079619D01*
X92536720Y-110051519D01*
X92399170Y-110034658D01*
X92258548Y-110029038D01*
X92201931Y-110029937D01*
X92062538Y-110040054D01*
X91926216Y-110061410D01*
X91792964Y-110094006D01*
X91662784Y-110137843D01*
X91535674Y-110192920D01*
X91411636Y-110259237D01*
X91364853Y-110287635D01*
X91253280Y-110364015D01*
X91149399Y-110448086D01*
X91053211Y-110539850D01*
X90964714Y-110639307D01*
X90883910Y-110746455D01*
X90810799Y-110861296D01*
X90782923Y-110910547D01*
X90721102Y-111035868D01*
X90670521Y-111164319D01*
X90631180Y-111295901D01*
X90603080Y-111430613D01*
X90586220Y-111568456D01*
X90580624Y-111708818D01*
X90580600Y-111709429D01*
X90302822Y-111709429D01*
X90302822Y-109751260D01*
X94214274Y-109751260D01*
X94214274Y-113666987D01*
G37*
G36*
X92311137Y-99646504D02*
G01*
X92440604Y-99655949D01*
X92567210Y-99675889D01*
X92690953Y-99706324D01*
X92811834Y-99747254D01*
X92929853Y-99798679D01*
X93045010Y-99860598D01*
X93088485Y-99887188D01*
X93192225Y-99958588D01*
X93288900Y-100037025D01*
X93378508Y-100122498D01*
X93461050Y-100215008D01*
X93536527Y-100314553D01*
X93604937Y-100421135D01*
X93630964Y-100466931D01*
X93688685Y-100583423D01*
X93735912Y-100702778D01*
X93772644Y-100824995D01*
X93798881Y-100950074D01*
X93814623Y-101078015D01*
X93819870Y-101208818D01*
X93819031Y-101261483D01*
X93809585Y-101391142D01*
X93789645Y-101517938D01*
X93759210Y-101641872D01*
X93718281Y-101762944D01*
X93666856Y-101881154D01*
X93604937Y-101996502D01*
X93578421Y-102039979D01*
X93507184Y-102143746D01*
X93428881Y-102240477D01*
X93343513Y-102330172D01*
X93251078Y-102412831D01*
X93151577Y-102488453D01*
X93045010Y-102557039D01*
X92999291Y-102583066D01*
X92882989Y-102640788D01*
X92763825Y-102688014D01*
X92641799Y-102724746D01*
X92516911Y-102750983D01*
X92389161Y-102766725D01*
X92258548Y-102771973D01*
X92205959Y-102771133D01*
X92076492Y-102761688D01*
X91949886Y-102741748D01*
X91826143Y-102711313D01*
X91705262Y-102670383D01*
X91587243Y-102618958D01*
X91472086Y-102557039D01*
X91428611Y-102530449D01*
X91324871Y-102459048D01*
X91228196Y-102380612D01*
X91138588Y-102295139D01*
X91056046Y-102202629D01*
X90980569Y-102103084D01*
X90912159Y-101996502D01*
X90886132Y-101950706D01*
X90841052Y-101859726D01*
X91491015Y-101859726D01*
X91537545Y-101972783D01*
X91614518Y-102092907D01*
X91712391Y-102189477D01*
X91831164Y-102262494D01*
X91970838Y-102311956D01*
X92097624Y-102334568D01*
X92237787Y-102342105D01*
X92257219Y-102341954D01*
X92387233Y-102332412D01*
X92522941Y-102303332D01*
X92644910Y-102254865D01*
X92753140Y-102187011D01*
X92794934Y-102151926D01*
X92876466Y-102060751D01*
X92942240Y-101940595D01*
X92975812Y-101821496D01*
X92987002Y-101689366D01*
X92979188Y-101581365D01*
X92938166Y-101440258D01*
X92861980Y-101324223D01*
X92750633Y-101233262D01*
X92630983Y-101176614D01*
X92486915Y-101137377D01*
X92486915Y-101116617D01*
X92580758Y-101091353D01*
X92702488Y-101036570D01*
X92801378Y-100961523D01*
X92872862Y-100871875D01*
X92920915Y-100756596D01*
X92936933Y-100623857D01*
X92936281Y-100595249D01*
X92913491Y-100461798D01*
X92858143Y-100344328D01*
X92770237Y-100242838D01*
X92719413Y-100201622D01*
X92604085Y-100135676D01*
X92488208Y-100096006D01*
X92358366Y-100073165D01*
X92235956Y-100066983D01*
X92135204Y-100071105D01*
X92011904Y-100089423D01*
X91875516Y-100132929D01*
X91758836Y-100199332D01*
X91661863Y-100288633D01*
X91584598Y-100400833D01*
X91527041Y-100535929D01*
X91868981Y-100637290D01*
X91908444Y-100539345D01*
X91992834Y-100430423D01*
X92107461Y-100367096D01*
X92234734Y-100349084D01*
X92342626Y-100362290D01*
X92454553Y-100418082D01*
X92460864Y-100423260D01*
X92534595Y-100523457D01*
X92557135Y-100647060D01*
X92541808Y-100765341D01*
X92473687Y-100884982D01*
X92369377Y-100953979D01*
X92246759Y-100986609D01*
X92121161Y-100995106D01*
X91966678Y-100995106D01*
X91966678Y-101286976D01*
X92141922Y-101286976D01*
X92169684Y-101287370D01*
X92295273Y-101301144D01*
X92416896Y-101343648D01*
X92518689Y-101429050D01*
X92577297Y-101553020D01*
X92593161Y-101689977D01*
X92592409Y-101719021D01*
X92569035Y-101841505D01*
X92507676Y-101948874D01*
X92475416Y-101981065D01*
X92366690Y-102042174D01*
X92241451Y-102060615D01*
X92201814Y-102059423D01*
X92078337Y-102036465D01*
X91966271Y-101974451D01*
X91885194Y-101874273D01*
X91839672Y-101755312D01*
X91491015Y-101859726D01*
X90841052Y-101859726D01*
X90828411Y-101834214D01*
X90781184Y-101714859D01*
X90744452Y-101592642D01*
X90718215Y-101467563D01*
X90702473Y-101339622D01*
X90697226Y-101208818D01*
X90698065Y-101156154D01*
X90707511Y-101026495D01*
X90727451Y-100899699D01*
X90757886Y-100775764D01*
X90798815Y-100654692D01*
X90850240Y-100536483D01*
X90912159Y-100421135D01*
X90938675Y-100377658D01*
X91009912Y-100273891D01*
X91088215Y-100177160D01*
X91173583Y-100087465D01*
X91266018Y-100004806D01*
X91365519Y-99929184D01*
X91472086Y-99860598D01*
X91517805Y-99834571D01*
X91634107Y-99776849D01*
X91753271Y-99729623D01*
X91875297Y-99692891D01*
X92000185Y-99666654D01*
X92127935Y-99650912D01*
X92258548Y-99645664D01*
X92311137Y-99646504D01*
G37*
G36*
X94214274Y-103166987D02*
G01*
X90302822Y-103166987D01*
X90302822Y-101209429D01*
X90580600Y-101209429D01*
X90581499Y-101266120D01*
X90591615Y-101405677D01*
X90612971Y-101542134D01*
X90645568Y-101675489D01*
X90689405Y-101805744D01*
X90744481Y-101932898D01*
X90810799Y-102056952D01*
X90839120Y-102103811D01*
X90915309Y-102215575D01*
X90999190Y-102319646D01*
X91090763Y-102416026D01*
X91190028Y-102504713D01*
X91296986Y-102585708D01*
X91411636Y-102659010D01*
X91460883Y-102686886D01*
X91586150Y-102748707D01*
X91714488Y-102799288D01*
X91845896Y-102838628D01*
X91980376Y-102866729D01*
X92117926Y-102883589D01*
X92258548Y-102889209D01*
X92315165Y-102888310D01*
X92454558Y-102878194D01*
X92590880Y-102856837D01*
X92724132Y-102824241D01*
X92854312Y-102780404D01*
X92981422Y-102725327D01*
X93105460Y-102659010D01*
X93152243Y-102630612D01*
X93263816Y-102554233D01*
X93367697Y-102470161D01*
X93463885Y-102378397D01*
X93552382Y-102278941D01*
X93633186Y-102171792D01*
X93706297Y-102056952D01*
X93734173Y-102007702D01*
X93795994Y-101882409D01*
X93846575Y-101754014D01*
X93885916Y-101622519D01*
X93914016Y-101487923D01*
X93930876Y-101350226D01*
X93936496Y-101209429D01*
X93935597Y-101152664D01*
X93925481Y-101012943D01*
X93904125Y-100876352D01*
X93871528Y-100742892D01*
X93827691Y-100612563D01*
X93772615Y-100485364D01*
X93706297Y-100361296D01*
X93677976Y-100314436D01*
X93601787Y-100202673D01*
X93517906Y-100098601D01*
X93426333Y-100002222D01*
X93327068Y-99913535D01*
X93220110Y-99832540D01*
X93105460Y-99759237D01*
X93056213Y-99731361D01*
X92930946Y-99669540D01*
X92802608Y-99618960D01*
X92671200Y-99579619D01*
X92536720Y-99551519D01*
X92399170Y-99534658D01*
X92258548Y-99529038D01*
X92201931Y-99529937D01*
X92062538Y-99540054D01*
X91926216Y-99561410D01*
X91792964Y-99594006D01*
X91662784Y-99637843D01*
X91535674Y-99692920D01*
X91411636Y-99759237D01*
X91364853Y-99787635D01*
X91253280Y-99864015D01*
X91149399Y-99948086D01*
X91053211Y-100039850D01*
X90964714Y-100139307D01*
X90883910Y-100246455D01*
X90810799Y-100361296D01*
X90782923Y-100410547D01*
X90721102Y-100535868D01*
X90670521Y-100664319D01*
X90631180Y-100795901D01*
X90603080Y-100930613D01*
X90586220Y-101068456D01*
X90580624Y-101208818D01*
X90580600Y-101209429D01*
X90302822Y-101209429D01*
X90302822Y-99251260D01*
X94214274Y-99251260D01*
X94214274Y-103166987D01*
G37*
G36*
X92311137Y-89146504D02*
G01*
X92440604Y-89155949D01*
X92567210Y-89175889D01*
X92690953Y-89206324D01*
X92811834Y-89247254D01*
X92929853Y-89298679D01*
X93045010Y-89360598D01*
X93088485Y-89387188D01*
X93192225Y-89458588D01*
X93288900Y-89537025D01*
X93378508Y-89622498D01*
X93461050Y-89715008D01*
X93536527Y-89814553D01*
X93604937Y-89921135D01*
X93630964Y-89966931D01*
X93688685Y-90083423D01*
X93735912Y-90202778D01*
X93772644Y-90324995D01*
X93798881Y-90450074D01*
X93814623Y-90578015D01*
X93819870Y-90708818D01*
X93819031Y-90761483D01*
X93809585Y-90891142D01*
X93789645Y-91017938D01*
X93759210Y-91141872D01*
X93718281Y-91262944D01*
X93666856Y-91381154D01*
X93604937Y-91496502D01*
X93578421Y-91539979D01*
X93507184Y-91643746D01*
X93428881Y-91740477D01*
X93343513Y-91830172D01*
X93251078Y-91912831D01*
X93151577Y-91988453D01*
X93045010Y-92057039D01*
X92999291Y-92083066D01*
X92882989Y-92140788D01*
X92763825Y-92188014D01*
X92641799Y-92224746D01*
X92516911Y-92250983D01*
X92389161Y-92266725D01*
X92258548Y-92271973D01*
X92205959Y-92271133D01*
X92076492Y-92261688D01*
X91949886Y-92241748D01*
X91826143Y-92211313D01*
X91705262Y-92170383D01*
X91587243Y-92118958D01*
X91472086Y-92057039D01*
X91428611Y-92030449D01*
X91324871Y-91959048D01*
X91228196Y-91880612D01*
X91138588Y-91795139D01*
X91056046Y-91702629D01*
X90980569Y-91603084D01*
X90914510Y-91500165D01*
X91516660Y-91500165D01*
X91516660Y-91763948D01*
X92976622Y-91763948D01*
X92976622Y-91468414D01*
X91909891Y-91468414D01*
X91936989Y-91424443D01*
X92015078Y-91320008D01*
X92098569Y-91228445D01*
X92193494Y-91137862D01*
X92287910Y-91052587D01*
X92388054Y-90964572D01*
X92486915Y-90879178D01*
X92579665Y-90799315D01*
X92673440Y-90713792D01*
X92761577Y-90626141D01*
X92849616Y-90523194D01*
X92864108Y-90502273D01*
X92922545Y-90392877D01*
X92957607Y-90275490D01*
X92969295Y-90150113D01*
X92965061Y-90073134D01*
X92936102Y-89946669D01*
X92879710Y-89835756D01*
X92795882Y-89740396D01*
X92745145Y-89699895D01*
X92629587Y-89635094D01*
X92513072Y-89596113D01*
X92382182Y-89573669D01*
X92258548Y-89567594D01*
X92159887Y-89572424D01*
X92037689Y-89593890D01*
X91912990Y-89638568D01*
X91801814Y-89704980D01*
X91788542Y-89714971D01*
X91694003Y-89805332D01*
X91620148Y-89914239D01*
X91566978Y-90041694D01*
X91537421Y-90168431D01*
X91896458Y-90242315D01*
X91906935Y-90172040D01*
X91942670Y-90052227D01*
X92020971Y-89935487D01*
X92134306Y-89867900D01*
X92262212Y-89849084D01*
X92371906Y-89862524D01*
X92482030Y-89919303D01*
X92555402Y-90024759D01*
X92576064Y-90150724D01*
X92562110Y-90258254D01*
X92512561Y-90372984D01*
X92471304Y-90432160D01*
X92386010Y-90532004D01*
X92295449Y-90624845D01*
X92199930Y-90715535D01*
X92141519Y-90765397D01*
X92030980Y-90864793D01*
X91928818Y-90963749D01*
X91835032Y-91062267D01*
X91749624Y-91160346D01*
X91672592Y-91257986D01*
X91588082Y-91379418D01*
X91516660Y-91500165D01*
X90914510Y-91500165D01*
X90912159Y-91496502D01*
X90886132Y-91450706D01*
X90828411Y-91334214D01*
X90781184Y-91214859D01*
X90744452Y-91092642D01*
X90718215Y-90967563D01*
X90702473Y-90839622D01*
X90697226Y-90708818D01*
X90698065Y-90656154D01*
X90707511Y-90526495D01*
X90727451Y-90399699D01*
X90757886Y-90275764D01*
X90798815Y-90154692D01*
X90850240Y-90036483D01*
X90912159Y-89921135D01*
X90938675Y-89877658D01*
X91009912Y-89773891D01*
X91088215Y-89677160D01*
X91173583Y-89587465D01*
X91266018Y-89504806D01*
X91365519Y-89429184D01*
X91472086Y-89360598D01*
X91517805Y-89334571D01*
X91634107Y-89276849D01*
X91753271Y-89229623D01*
X91875297Y-89192891D01*
X92000185Y-89166654D01*
X92127935Y-89150912D01*
X92258548Y-89145664D01*
X92311137Y-89146504D01*
G37*
G36*
X94214274Y-92666987D02*
G01*
X90302822Y-92666987D01*
X90302822Y-90709429D01*
X90580600Y-90709429D01*
X90581499Y-90766120D01*
X90591615Y-90905677D01*
X90612971Y-91042134D01*
X90645568Y-91175489D01*
X90689405Y-91305744D01*
X90744481Y-91432898D01*
X90810799Y-91556952D01*
X90839120Y-91603811D01*
X90915309Y-91715575D01*
X90999190Y-91819646D01*
X91090763Y-91916026D01*
X91190028Y-92004713D01*
X91296986Y-92085708D01*
X91411636Y-92159010D01*
X91460883Y-92186886D01*
X91586150Y-92248707D01*
X91714488Y-92299288D01*
X91845896Y-92338628D01*
X91980376Y-92366729D01*
X92117926Y-92383589D01*
X92258548Y-92389209D01*
X92315165Y-92388310D01*
X92454558Y-92378194D01*
X92590880Y-92356837D01*
X92724132Y-92324241D01*
X92854312Y-92280404D01*
X92981422Y-92225327D01*
X93105460Y-92159010D01*
X93152243Y-92130612D01*
X93263816Y-92054233D01*
X93367697Y-91970161D01*
X93463885Y-91878397D01*
X93552382Y-91778941D01*
X93633186Y-91671792D01*
X93706297Y-91556952D01*
X93734173Y-91507702D01*
X93795994Y-91382409D01*
X93846575Y-91254014D01*
X93885916Y-91122519D01*
X93914016Y-90987923D01*
X93930876Y-90850226D01*
X93936496Y-90709429D01*
X93935597Y-90652664D01*
X93925481Y-90512943D01*
X93904125Y-90376352D01*
X93871528Y-90242892D01*
X93827691Y-90112563D01*
X93772615Y-89985364D01*
X93706297Y-89861296D01*
X93677976Y-89814436D01*
X93601787Y-89702673D01*
X93517906Y-89598601D01*
X93426333Y-89502222D01*
X93327068Y-89413535D01*
X93220110Y-89332540D01*
X93105460Y-89259237D01*
X93056213Y-89231361D01*
X92930946Y-89169540D01*
X92802608Y-89118960D01*
X92671200Y-89079619D01*
X92536720Y-89051519D01*
X92399170Y-89034658D01*
X92258548Y-89029038D01*
X92201931Y-89029937D01*
X92062538Y-89040054D01*
X91926216Y-89061410D01*
X91792964Y-89094006D01*
X91662784Y-89137843D01*
X91535674Y-89192920D01*
X91411636Y-89259237D01*
X91364853Y-89287635D01*
X91253280Y-89364015D01*
X91149399Y-89448086D01*
X91053211Y-89539850D01*
X90964714Y-89639307D01*
X90883910Y-89746455D01*
X90810799Y-89861296D01*
X90782923Y-89910547D01*
X90721102Y-90035868D01*
X90670521Y-90164319D01*
X90631180Y-90295901D01*
X90603080Y-90430613D01*
X90586220Y-90568456D01*
X90580624Y-90708818D01*
X90580600Y-90709429D01*
X90302822Y-90709429D01*
X90302822Y-88751260D01*
X94214274Y-88751260D01*
X94214274Y-92666987D01*
G37*
G36*
X92311137Y-78146504D02*
G01*
X92440604Y-78155949D01*
X92567210Y-78175889D01*
X92690953Y-78206324D01*
X92811834Y-78247254D01*
X92929853Y-78298679D01*
X93045010Y-78360598D01*
X93088485Y-78387188D01*
X93192225Y-78458588D01*
X93288900Y-78537025D01*
X93378508Y-78622498D01*
X93461050Y-78715008D01*
X93536527Y-78814553D01*
X93604937Y-78921135D01*
X93630964Y-78966931D01*
X93688685Y-79083423D01*
X93735912Y-79202778D01*
X93772644Y-79324995D01*
X93798881Y-79450074D01*
X93814623Y-79578015D01*
X93819870Y-79708818D01*
X93819031Y-79761483D01*
X93809585Y-79891142D01*
X93789645Y-80017938D01*
X93759210Y-80141872D01*
X93718281Y-80262944D01*
X93666856Y-80381154D01*
X93604937Y-80496502D01*
X93578421Y-80539979D01*
X93507184Y-80643746D01*
X93428881Y-80740477D01*
X93343513Y-80830172D01*
X93251078Y-80912831D01*
X93151577Y-80988453D01*
X93045010Y-81057039D01*
X92999291Y-81083066D01*
X92882989Y-81140788D01*
X92763825Y-81188014D01*
X92641799Y-81224746D01*
X92516911Y-81250983D01*
X92389161Y-81266725D01*
X92258548Y-81271973D01*
X92205959Y-81271133D01*
X92076492Y-81261688D01*
X91949886Y-81241748D01*
X91826143Y-81211313D01*
X91705262Y-81170383D01*
X91587243Y-81118958D01*
X91472086Y-81057039D01*
X91428611Y-81030449D01*
X91324871Y-80959048D01*
X91228196Y-80880612D01*
X91138588Y-80795139D01*
X91056046Y-80702629D01*
X90980569Y-80603084D01*
X90912159Y-80496502D01*
X90886132Y-80450706D01*
X90828411Y-80334214D01*
X90781184Y-80214859D01*
X90744452Y-80092642D01*
X90718215Y-79967563D01*
X90702473Y-79839622D01*
X90697226Y-79708818D01*
X90698065Y-79656154D01*
X90707511Y-79526495D01*
X90727451Y-79399699D01*
X90757886Y-79275764D01*
X90798815Y-79154692D01*
X90850240Y-79036483D01*
X90912159Y-78921135D01*
X90928917Y-78893658D01*
X91638782Y-78893658D01*
X91702285Y-79189192D01*
X91796495Y-79157571D01*
X91913159Y-79111070D01*
X92032181Y-79052825D01*
X92138258Y-78988302D01*
X92138258Y-80518483D01*
X91681524Y-80518483D01*
X91681524Y-80803026D01*
X92922889Y-80803026D01*
X92922889Y-80518483D01*
X92493632Y-80518483D01*
X92493632Y-78625601D01*
X92195045Y-78625601D01*
X92107397Y-78682653D01*
X91995427Y-78745251D01*
X91872997Y-78803584D01*
X91759732Y-78850188D01*
X91638782Y-78893658D01*
X90928917Y-78893658D01*
X90938675Y-78877658D01*
X91009912Y-78773891D01*
X91088215Y-78677160D01*
X91173583Y-78587465D01*
X91266018Y-78504806D01*
X91365519Y-78429184D01*
X91472086Y-78360598D01*
X91517805Y-78334571D01*
X91634107Y-78276849D01*
X91753271Y-78229623D01*
X91875297Y-78192891D01*
X92000185Y-78166654D01*
X92127935Y-78150912D01*
X92258548Y-78145664D01*
X92311137Y-78146504D01*
G37*
G36*
X94214274Y-81666987D02*
G01*
X90302822Y-81666987D01*
X90302822Y-79709429D01*
X90580600Y-79709429D01*
X90581499Y-79766120D01*
X90591615Y-79905677D01*
X90612971Y-80042134D01*
X90645568Y-80175489D01*
X90689405Y-80305744D01*
X90744481Y-80432898D01*
X90810799Y-80556952D01*
X90839120Y-80603811D01*
X90915309Y-80715575D01*
X90999190Y-80819646D01*
X91090763Y-80916026D01*
X91190028Y-81004713D01*
X91296986Y-81085708D01*
X91411636Y-81159010D01*
X91460883Y-81186886D01*
X91586150Y-81248707D01*
X91714488Y-81299288D01*
X91845896Y-81338628D01*
X91980376Y-81366729D01*
X92117926Y-81383589D01*
X92258548Y-81389209D01*
X92315165Y-81388310D01*
X92454558Y-81378194D01*
X92590880Y-81356837D01*
X92724132Y-81324241D01*
X92854312Y-81280404D01*
X92981422Y-81225327D01*
X93105460Y-81159010D01*
X93152243Y-81130612D01*
X93263816Y-81054233D01*
X93367697Y-80970161D01*
X93463885Y-80878397D01*
X93552382Y-80778941D01*
X93633186Y-80671792D01*
X93706297Y-80556952D01*
X93734173Y-80507702D01*
X93795994Y-80382409D01*
X93846575Y-80254014D01*
X93885916Y-80122519D01*
X93914016Y-79987923D01*
X93930876Y-79850226D01*
X93936496Y-79709429D01*
X93935597Y-79652664D01*
X93925481Y-79512943D01*
X93904125Y-79376352D01*
X93871528Y-79242892D01*
X93827691Y-79112563D01*
X93772615Y-78985364D01*
X93706297Y-78861296D01*
X93677976Y-78814436D01*
X93601787Y-78702673D01*
X93517906Y-78598601D01*
X93426333Y-78502222D01*
X93327068Y-78413535D01*
X93220110Y-78332540D01*
X93105460Y-78259237D01*
X93056213Y-78231361D01*
X92930946Y-78169540D01*
X92802608Y-78118960D01*
X92671200Y-78079619D01*
X92536720Y-78051519D01*
X92399170Y-78034658D01*
X92258548Y-78029038D01*
X92201931Y-78029937D01*
X92062538Y-78040054D01*
X91926216Y-78061410D01*
X91792964Y-78094006D01*
X91662784Y-78137843D01*
X91535674Y-78192920D01*
X91411636Y-78259237D01*
X91364853Y-78287635D01*
X91253280Y-78364015D01*
X91149399Y-78448086D01*
X91053211Y-78539850D01*
X90964714Y-78639307D01*
X90883910Y-78746455D01*
X90810799Y-78861296D01*
X90782923Y-78910547D01*
X90721102Y-79035868D01*
X90670521Y-79164319D01*
X90631180Y-79295901D01*
X90603080Y-79430613D01*
X90586220Y-79568456D01*
X90580624Y-79708818D01*
X90580600Y-79709429D01*
X90302822Y-79709429D01*
X90302822Y-77751260D01*
X94214274Y-77751260D01*
X94214274Y-81666987D01*
G37*
D10*
G36*
X94543963Y-101189106D02*
G01*
X94790648Y-101189106D01*
X94790648Y-100939002D01*
X94958199Y-100939002D01*
X94958199Y-101189106D01*
X95206106Y-101189106D01*
X95206106Y-101361053D01*
X94958199Y-101361053D01*
X94958199Y-101611158D01*
X94790648Y-101611158D01*
X94790648Y-101361053D01*
X94543963Y-101361053D01*
X94543963Y-101189106D01*
G37*
G36*
X94543963Y-90689106D02*
G01*
X94790648Y-90689106D01*
X94790648Y-90439002D01*
X94958199Y-90439002D01*
X94958199Y-90689106D01*
X95206106Y-90689106D01*
X95206106Y-90861053D01*
X94958199Y-90861053D01*
X94958199Y-91111158D01*
X94790648Y-91111158D01*
X94790648Y-90861053D01*
X94543963Y-90861053D01*
X94543963Y-90689106D01*
G37*
G36*
X94543963Y-79689106D02*
G01*
X94790648Y-79689106D01*
X94790648Y-79439002D01*
X94958199Y-79439002D01*
X94958199Y-79689106D01*
X95206106Y-79689106D01*
X95206106Y-79861053D01*
X94958199Y-79861053D01*
X94958199Y-80111158D01*
X94790648Y-80111158D01*
X94790648Y-79861053D01*
X94543963Y-79861053D01*
X94543963Y-79689106D01*
G37*
D12*
G36*
X118340893Y-70628108D02*
G01*
X117803558Y-70628108D01*
X117803558Y-70463000D01*
X117797768Y-70364087D01*
X117783042Y-70315966D01*
X117714166Y-70284214D01*
X117635519Y-70324270D01*
X117609309Y-70420600D01*
X117608653Y-70444926D01*
X117618235Y-70545356D01*
X117638939Y-70601242D01*
X117710533Y-70674567D01*
X117794259Y-70731880D01*
X117802581Y-70737041D01*
X117894592Y-70795399D01*
X117977673Y-70850797D01*
X118068966Y-70915879D01*
X118146306Y-70976334D01*
X118220695Y-71042772D01*
X118288625Y-71120990D01*
X118337032Y-71216075D01*
X118366761Y-71324145D01*
X118382506Y-71436888D01*
X118388373Y-71547032D01*
X118388764Y-71586517D01*
X118385284Y-71695602D01*
X118373048Y-71800003D01*
X118346129Y-71901262D01*
X118333077Y-71930900D01*
X118270740Y-72014793D01*
X118191294Y-72076713D01*
X118118143Y-72116524D01*
X118024433Y-72152653D01*
X117922453Y-72176957D01*
X117824863Y-72188635D01*
X117747383Y-72191263D01*
X117648928Y-72187055D01*
X117544423Y-72171943D01*
X117448466Y-72145839D01*
X117350732Y-72103335D01*
X117267373Y-72050089D01*
X117195779Y-71982045D01*
X117142592Y-71896397D01*
X117135799Y-71879609D01*
X117109008Y-71783266D01*
X117093380Y-71677470D01*
X117086236Y-71568248D01*
X117084996Y-71492728D01*
X117084996Y-71347159D01*
X117622330Y-71347159D01*
X117622330Y-71618757D01*
X117627268Y-71716810D01*
X117644801Y-71780446D01*
X117725401Y-71816106D01*
X117810886Y-71771165D01*
X117837862Y-71673945D01*
X117839218Y-71637320D01*
X117834968Y-71538114D01*
X117816077Y-71439138D01*
X117785484Y-71381842D01*
X117706852Y-71314683D01*
X117623814Y-71256104D01*
X117541652Y-71202209D01*
X117515352Y-71185471D01*
X117427857Y-71128947D01*
X117344921Y-71072992D01*
X117260595Y-71011110D01*
X117229099Y-70984703D01*
X117165230Y-70909110D01*
X117116221Y-70816281D01*
X117113328Y-70809337D01*
X117083598Y-70708128D01*
X117070280Y-70606371D01*
X117067411Y-70523084D01*
X117070519Y-70419711D01*
X117081686Y-70317426D01*
X117107064Y-70213356D01*
X117132379Y-70156231D01*
X117192738Y-70076181D01*
X117275628Y-70010418D01*
X117343405Y-69974515D01*
X117440301Y-69939996D01*
X117537622Y-69919860D01*
X117644526Y-69910080D01*
X117695115Y-69909057D01*
X117803558Y-69913606D01*
X117903698Y-69927254D01*
X118006429Y-69953481D01*
X118079064Y-69981842D01*
X118167793Y-70031005D01*
X118246562Y-70099699D01*
X118289113Y-70165024D01*
X118318593Y-70259162D01*
X118333611Y-70363319D01*
X118339629Y-70461212D01*
X118340893Y-70540181D01*
X118340893Y-70628108D01*
G37*
G36*
X119249386Y-70319844D02*
G01*
X119351758Y-70334937D01*
X119452356Y-70363992D01*
X119469295Y-70370676D01*
X119561092Y-70416815D01*
X119641159Y-70477497D01*
X119675924Y-70514780D01*
X119734070Y-70598958D01*
X119773851Y-70691587D01*
X119775575Y-70697473D01*
X119793941Y-70798666D01*
X119801156Y-70904412D01*
X119802442Y-70983726D01*
X119802442Y-71427271D01*
X119801250Y-71527886D01*
X119796968Y-71627591D01*
X119787236Y-71729295D01*
X119777529Y-71785331D01*
X119745312Y-71882116D01*
X119695973Y-71966965D01*
X119672016Y-71998311D01*
X119598554Y-72070018D01*
X119509934Y-72124796D01*
X119463921Y-72144368D01*
X119363309Y-72172944D01*
X119261666Y-72187553D01*
X119171807Y-72191263D01*
X119072661Y-72188094D01*
X118972922Y-72177141D01*
X118875882Y-72156057D01*
X118859665Y-72151207D01*
X118765427Y-72111573D01*
X118684857Y-72053924D01*
X118661339Y-72029574D01*
X118604195Y-71946040D01*
X118566742Y-71854518D01*
X118560711Y-71833203D01*
X118542256Y-71730529D01*
X118534004Y-71632246D01*
X118530691Y-71529572D01*
X118530425Y-71487355D01*
X118530425Y-71023293D01*
X118533043Y-70918300D01*
X118539740Y-70842065D01*
X119085345Y-70842065D01*
X119085345Y-71670048D01*
X119088994Y-71772008D01*
X119101953Y-71839553D01*
X119166434Y-71878632D01*
X119231402Y-71842972D01*
X119246515Y-71742314D01*
X119247522Y-71688122D01*
X119247522Y-70842065D01*
X119244624Y-70738882D01*
X119232379Y-70664745D01*
X119167899Y-70628108D01*
X119101953Y-70664745D01*
X119086967Y-70764299D01*
X119085345Y-70842065D01*
X118539740Y-70842065D01*
X118542447Y-70811246D01*
X118561200Y-70707304D01*
X118585136Y-70629574D01*
X118633417Y-70538484D01*
X118702363Y-70460670D01*
X118782972Y-70401451D01*
X118880154Y-70356113D01*
X118980833Y-70329667D01*
X119080835Y-70317576D01*
X119148360Y-70315478D01*
X119249386Y-70319844D01*
G37*
G36*
X120548848Y-69940321D02*
G01*
X120548848Y-72160000D01*
X119977320Y-72160000D01*
X119977320Y-69940321D01*
X120548848Y-69940321D01*
G37*
G36*
X121438934Y-70319685D02*
G01*
X121541661Y-70334798D01*
X121645040Y-70364937D01*
X121726099Y-70403405D01*
X121812175Y-70463941D01*
X121880506Y-70535640D01*
X121935173Y-70627401D01*
X121939078Y-70636413D01*
X121971278Y-70738632D01*
X121988452Y-70837031D01*
X121997217Y-70935252D01*
X122000139Y-71044787D01*
X122000139Y-71284633D01*
X121281577Y-71284633D01*
X121281577Y-71682260D01*
X121285973Y-71784720D01*
X121299162Y-71842972D01*
X121368039Y-71878632D01*
X121452547Y-71831737D01*
X121471500Y-71731680D01*
X121474040Y-71649043D01*
X121474040Y-71409685D01*
X122000139Y-71409685D01*
X122000139Y-71542065D01*
X121997599Y-71647464D01*
X121988049Y-71748511D01*
X121978646Y-71798032D01*
X121943230Y-71890111D01*
X121888600Y-71975890D01*
X121878995Y-71988541D01*
X121808558Y-72062394D01*
X121724255Y-72119640D01*
X121680669Y-72140460D01*
X121581957Y-72171418D01*
X121476385Y-72187244D01*
X121379274Y-72191263D01*
X121273372Y-72186349D01*
X121175484Y-72171609D01*
X121077063Y-72144044D01*
X121068597Y-72140949D01*
X120976159Y-72097626D01*
X120894777Y-72038910D01*
X120859036Y-72002219D01*
X120802429Y-71921916D01*
X120761285Y-71828407D01*
X120755478Y-71808778D01*
X120736817Y-71706851D01*
X120728937Y-71606940D01*
X120726657Y-71501032D01*
X120726657Y-70972979D01*
X120729742Y-70873930D01*
X120730929Y-70863070D01*
X121281577Y-70863070D01*
X121281577Y-71003265D01*
X121443754Y-71003265D01*
X121443754Y-70863070D01*
X121441255Y-70759828D01*
X121428611Y-70671584D01*
X121366573Y-70628108D01*
X121295254Y-70665233D01*
X121283193Y-70766964D01*
X121281577Y-70863070D01*
X120730929Y-70863070D01*
X120740825Y-70772524D01*
X120762927Y-70673476D01*
X120791137Y-70598799D01*
X120845222Y-70512049D01*
X120918817Y-70440537D01*
X121002651Y-70388750D01*
X121098841Y-70350110D01*
X121203617Y-70325782D01*
X121305258Y-70316122D01*
X121340683Y-70315478D01*
X121438934Y-70319685D01*
G37*
G36*
X122737752Y-70346741D02*
G01*
X122728471Y-70510872D01*
X122791054Y-70430014D01*
X122870585Y-70367427D01*
X122875994Y-70364326D01*
X122970027Y-70327690D01*
X123070162Y-70315525D01*
X123077250Y-70315478D01*
X123177176Y-70324889D01*
X123275003Y-70359657D01*
X123310746Y-70382400D01*
X123381651Y-70452761D01*
X123425813Y-70544611D01*
X123427494Y-70550928D01*
X123444573Y-70655974D01*
X123451296Y-70755052D01*
X123453769Y-70861221D01*
X123453872Y-70890425D01*
X123453872Y-72160000D01*
X122898953Y-72160000D01*
X122898953Y-70898729D01*
X122897712Y-70795546D01*
X122891201Y-70694617D01*
X122886252Y-70669630D01*
X122817864Y-70628108D01*
X122743614Y-70675491D01*
X122731370Y-70778875D01*
X122728708Y-70879587D01*
X122728471Y-70928527D01*
X122728471Y-72160000D01*
X122173551Y-72160000D01*
X122173551Y-70346741D01*
X122737752Y-70346741D01*
G37*
G36*
X124339407Y-70319844D02*
G01*
X124441779Y-70334937D01*
X124542377Y-70363992D01*
X124559316Y-70370676D01*
X124651113Y-70416815D01*
X124731180Y-70477497D01*
X124765945Y-70514780D01*
X124824091Y-70598958D01*
X124863872Y-70691587D01*
X124865596Y-70697473D01*
X124883962Y-70798666D01*
X124891177Y-70904412D01*
X124892463Y-70983726D01*
X124892463Y-71427271D01*
X124891271Y-71527886D01*
X124886989Y-71627591D01*
X124877257Y-71729295D01*
X124867550Y-71785331D01*
X124835333Y-71882116D01*
X124785994Y-71966965D01*
X124762037Y-71998311D01*
X124688574Y-72070018D01*
X124599955Y-72124796D01*
X124553942Y-72144368D01*
X124453329Y-72172944D01*
X124351687Y-72187553D01*
X124261828Y-72191263D01*
X124162682Y-72188094D01*
X124062943Y-72177141D01*
X123965903Y-72156057D01*
X123949685Y-72151207D01*
X123855448Y-72111573D01*
X123774878Y-72053924D01*
X123751360Y-72029574D01*
X123694216Y-71946040D01*
X123656763Y-71854518D01*
X123650732Y-71833203D01*
X123632277Y-71730529D01*
X123624025Y-71632246D01*
X123620712Y-71529572D01*
X123620446Y-71487355D01*
X123620446Y-71023293D01*
X123623064Y-70918300D01*
X123629760Y-70842065D01*
X124175366Y-70842065D01*
X124175366Y-71670048D01*
X124179015Y-71772008D01*
X124191974Y-71839553D01*
X124256454Y-71878632D01*
X124321423Y-71842972D01*
X124336536Y-71742314D01*
X124337543Y-71688122D01*
X124337543Y-70842065D01*
X124334645Y-70738882D01*
X124322400Y-70664745D01*
X124257920Y-70628108D01*
X124191974Y-70664745D01*
X124176988Y-70764299D01*
X124175366Y-70842065D01*
X123629760Y-70842065D01*
X123632467Y-70811246D01*
X123651221Y-70707304D01*
X123675157Y-70629574D01*
X123723438Y-70538484D01*
X123792384Y-70460670D01*
X123872993Y-70401451D01*
X123970175Y-70356113D01*
X124070854Y-70329667D01*
X124170856Y-70317576D01*
X124238381Y-70315478D01*
X124339407Y-70319844D01*
G37*
G36*
X125638869Y-69940321D02*
G01*
X125638869Y-70221688D01*
X125067341Y-70221688D01*
X125067341Y-69940321D01*
X125638869Y-69940321D01*
G37*
G36*
X125638869Y-70346741D02*
G01*
X125638869Y-72160000D01*
X125067341Y-72160000D01*
X125067341Y-70346741D01*
X125638869Y-70346741D01*
G37*
G36*
X127095533Y-72160000D02*
G01*
X126540614Y-72160000D01*
X126540614Y-72024200D01*
X126464142Y-72093388D01*
X126378550Y-72147075D01*
X126373063Y-72149741D01*
X126277296Y-72182139D01*
X126188904Y-72191263D01*
X126089767Y-72180137D01*
X125995627Y-72143272D01*
X125965177Y-72123852D01*
X125891253Y-72055931D01*
X125843545Y-71967536D01*
X125825179Y-71868427D01*
X125817963Y-71760645D01*
X125816678Y-71678353D01*
X125816678Y-70831318D01*
X125817332Y-70798101D01*
X126371598Y-70798101D01*
X126371598Y-71696427D01*
X126376853Y-71798007D01*
X126388206Y-71843461D01*
X126451221Y-71878632D01*
X126522540Y-71839553D01*
X126538478Y-71738604D01*
X126540614Y-71646601D01*
X126540614Y-70798101D01*
X126533935Y-70697847D01*
X126523517Y-70662791D01*
X126455617Y-70628108D01*
X126388695Y-70659371D01*
X126372199Y-70760332D01*
X126371598Y-70798101D01*
X125817332Y-70798101D01*
X125818803Y-70723375D01*
X125827173Y-70617682D01*
X125843545Y-70535296D01*
X125891529Y-70448458D01*
X125966154Y-70381912D01*
X126057463Y-70336498D01*
X126154975Y-70317099D01*
X126195743Y-70315478D01*
X126294539Y-70325003D01*
X126384787Y-70353579D01*
X126471584Y-70404297D01*
X126540614Y-70466908D01*
X126540614Y-69940321D01*
X127095533Y-69940321D01*
X127095533Y-72160000D01*
G37*
G36*
X129169644Y-69940321D02*
G01*
X128875575Y-72160000D01*
X127997766Y-72160000D01*
X127663642Y-69940321D01*
X128273761Y-69940321D01*
X128286772Y-70053832D01*
X128299307Y-70165390D01*
X128311365Y-70274994D01*
X128322945Y-70382644D01*
X128334049Y-70488340D01*
X128344675Y-70592083D01*
X128354825Y-70693871D01*
X128364497Y-70793705D01*
X128373692Y-70891585D01*
X128386591Y-71034742D01*
X128398416Y-71173503D01*
X128409168Y-71307867D01*
X128418847Y-71437834D01*
X128424703Y-71522037D01*
X128433255Y-71397353D01*
X128441876Y-71275726D01*
X128450566Y-71157156D01*
X128459324Y-71041642D01*
X128468151Y-70929185D01*
X128477047Y-70819786D01*
X128486012Y-70713443D01*
X128495045Y-70610157D01*
X128504147Y-70509927D01*
X128516389Y-70381043D01*
X128519469Y-70349672D01*
X128559525Y-69940321D01*
X129169644Y-69940321D01*
G37*
G36*
X129946998Y-70318964D02*
G01*
X130052228Y-70331843D01*
X130156176Y-70358183D01*
X130252317Y-70402632D01*
X130270690Y-70414640D01*
X130348982Y-70480748D01*
X130409316Y-70563715D01*
X130442637Y-70657418D01*
X130456569Y-70762626D01*
X130464253Y-70877847D01*
X130468052Y-70978036D01*
X130470445Y-71093133D01*
X130471345Y-71195944D01*
X130471458Y-71250928D01*
X130471458Y-72160000D01*
X129931681Y-72160000D01*
X129931681Y-71994891D01*
X129877507Y-72076207D01*
X129800279Y-72142414D01*
X129706337Y-72180529D01*
X129608792Y-72191263D01*
X129511542Y-72181565D01*
X129411902Y-72148867D01*
X129341591Y-72109197D01*
X129272341Y-72029410D01*
X129237062Y-71929869D01*
X129222927Y-71831131D01*
X129219958Y-71749183D01*
X129219958Y-71648066D01*
X129740683Y-71648066D01*
X129743747Y-71749330D01*
X129759246Y-71836133D01*
X129832519Y-71878632D01*
X129900418Y-71845415D01*
X129914964Y-71748485D01*
X129916538Y-71670537D01*
X129916538Y-71284633D01*
X129838074Y-71349948D01*
X129773681Y-71426548D01*
X129761688Y-71453161D01*
X129744150Y-71554629D01*
X129740683Y-71648066D01*
X129219958Y-71648066D01*
X129219958Y-71598241D01*
X129225058Y-71492917D01*
X129245145Y-71392314D01*
X129284438Y-71317850D01*
X129368431Y-71253094D01*
X129463605Y-71203541D01*
X129558574Y-71162328D01*
X129604884Y-71143949D01*
X129698353Y-71105956D01*
X129795195Y-71063046D01*
X129880925Y-71015281D01*
X129896999Y-70998869D01*
X129915317Y-70901691D01*
X129916538Y-70850858D01*
X129912424Y-70747982D01*
X129895045Y-70670118D01*
X129824703Y-70628108D01*
X129754361Y-70663768D01*
X129742019Y-70766134D01*
X129740683Y-70847927D01*
X129740683Y-71034528D01*
X129219958Y-71034528D01*
X129219958Y-70915338D01*
X129223822Y-70807116D01*
X129237179Y-70704362D01*
X129265801Y-70605364D01*
X129268806Y-70598311D01*
X129324700Y-70511775D01*
X129397308Y-70445354D01*
X129464689Y-70400963D01*
X129554312Y-70359639D01*
X129657769Y-70331840D01*
X129761343Y-70318483D01*
X129846196Y-70315478D01*
X129946998Y-70318964D01*
G37*
G36*
X131227145Y-69940321D02*
G01*
X131227145Y-72160000D01*
X130655617Y-72160000D01*
X130655617Y-69940321D01*
X131227145Y-69940321D01*
G37*
G36*
X132568527Y-70346741D02*
G01*
X132308653Y-72160000D01*
X131584717Y-72160000D01*
X131305792Y-70346741D01*
X131802093Y-70346741D01*
X131956943Y-71700823D01*
X131966019Y-71603427D01*
X131975659Y-71490438D01*
X131985004Y-71375474D01*
X131993339Y-71269885D01*
X132002437Y-71152191D01*
X132012298Y-71022391D01*
X132017515Y-70952951D01*
X132025432Y-70854431D01*
X132035278Y-70738065D01*
X132045502Y-70623725D01*
X132056103Y-70511411D01*
X132067083Y-70401124D01*
X132072714Y-70346741D01*
X132568527Y-70346741D01*
G37*
G36*
X133340400Y-70319685D02*
G01*
X133443127Y-70334798D01*
X133546506Y-70364937D01*
X133627564Y-70403405D01*
X133713641Y-70463941D01*
X133781971Y-70535640D01*
X133836639Y-70627401D01*
X133840544Y-70636413D01*
X133872744Y-70738632D01*
X133889917Y-70837031D01*
X133898683Y-70935252D01*
X133901605Y-71044787D01*
X133901605Y-71284633D01*
X133183042Y-71284633D01*
X133183042Y-71682260D01*
X133187438Y-71784720D01*
X133200628Y-71842972D01*
X133269504Y-71878632D01*
X133354012Y-71831737D01*
X133372966Y-71731680D01*
X133375505Y-71649043D01*
X133375505Y-71409685D01*
X133901605Y-71409685D01*
X133901605Y-71542065D01*
X133899065Y-71647464D01*
X133889515Y-71748511D01*
X133880111Y-71798032D01*
X133844696Y-71890111D01*
X133790066Y-71975890D01*
X133780460Y-71988541D01*
X133710024Y-72062394D01*
X133625721Y-72119640D01*
X133582135Y-72140460D01*
X133483423Y-72171418D01*
X133377850Y-72187244D01*
X133280739Y-72191263D01*
X133174837Y-72186349D01*
X133076949Y-72171609D01*
X132978529Y-72144044D01*
X132970062Y-72140949D01*
X132877624Y-72097626D01*
X132796242Y-72038910D01*
X132760502Y-72002219D01*
X132703895Y-71921916D01*
X132662750Y-71828407D01*
X132656943Y-71808778D01*
X132638283Y-71706851D01*
X132630402Y-71606940D01*
X132628122Y-71501032D01*
X132628122Y-70972979D01*
X132631208Y-70873930D01*
X132632395Y-70863070D01*
X133183042Y-70863070D01*
X133183042Y-71003265D01*
X133345219Y-71003265D01*
X133345219Y-70863070D01*
X133342720Y-70759828D01*
X133330076Y-70671584D01*
X133268039Y-70628108D01*
X133196720Y-70665233D01*
X133184658Y-70766964D01*
X133183042Y-70863070D01*
X132632395Y-70863070D01*
X132642290Y-70772524D01*
X132664392Y-70673476D01*
X132692602Y-70598799D01*
X132746687Y-70512049D01*
X132820282Y-70440537D01*
X132904117Y-70388750D01*
X133000306Y-70350110D01*
X133105083Y-70325782D01*
X133206723Y-70316122D01*
X133242149Y-70315478D01*
X133340400Y-70319685D01*
G37*
G36*
X135934193Y-70909476D02*
G01*
X135355826Y-70909476D01*
X135355826Y-70530900D01*
X135353633Y-70432327D01*
X135340581Y-70334027D01*
X135337264Y-70325247D01*
X135255687Y-70284214D01*
X135167473Y-70328006D01*
X135164829Y-70334040D01*
X135148922Y-70433849D01*
X135145796Y-70538767D01*
X135145778Y-70548974D01*
X135145778Y-71560628D01*
X135148457Y-71664171D01*
X135162522Y-71761269D01*
X135164829Y-71767745D01*
X135251290Y-71816106D01*
X135335799Y-71766769D01*
X135351993Y-71668365D01*
X135355650Y-71566534D01*
X135355826Y-71533272D01*
X135355826Y-71253370D01*
X135934193Y-71253370D01*
X135934193Y-71339832D01*
X135933001Y-71442855D01*
X135928421Y-71553543D01*
X135918738Y-71664837D01*
X135901946Y-71768503D01*
X135885345Y-71829783D01*
X135837793Y-71924698D01*
X135770321Y-72003772D01*
X135689855Y-72069065D01*
X135669434Y-72082819D01*
X135581263Y-72130263D01*
X135483321Y-72164152D01*
X135375610Y-72184485D01*
X135273349Y-72191157D01*
X135258129Y-72191263D01*
X135151253Y-72186938D01*
X135052885Y-72173965D01*
X134950883Y-72148549D01*
X134859994Y-72111836D01*
X134839009Y-72100893D01*
X134755181Y-72044298D01*
X134682614Y-71968545D01*
X134631705Y-71879243D01*
X134620655Y-71849811D01*
X134594917Y-71746857D01*
X134580722Y-71649043D01*
X134571622Y-71535709D01*
X134567878Y-71426212D01*
X134567411Y-71367187D01*
X134567411Y-70727271D01*
X134568182Y-70629491D01*
X134570953Y-70531595D01*
X134577249Y-70430005D01*
X134583531Y-70372630D01*
X134607747Y-70277717D01*
X134653409Y-70185867D01*
X134681716Y-70144508D01*
X134752058Y-70068968D01*
X134831987Y-70011189D01*
X134908374Y-69972072D01*
X135003294Y-69938842D01*
X135106706Y-69917919D01*
X135207037Y-69909611D01*
X135242009Y-69909057D01*
X135349503Y-69913732D01*
X135448442Y-69927757D01*
X135551039Y-69955235D01*
X135642463Y-69994924D01*
X135663572Y-70006755D01*
X135747992Y-70065260D01*
X135820674Y-70139239D01*
X135874947Y-70231525D01*
X135881926Y-70249532D01*
X135907192Y-70343929D01*
X135922709Y-70449313D01*
X135930927Y-70558102D01*
X135933989Y-70663667D01*
X135934193Y-70701381D01*
X135934193Y-70909476D01*
G37*
G36*
X136819239Y-70319844D02*
G01*
X136921612Y-70334937D01*
X137022210Y-70363992D01*
X137039148Y-70370676D01*
X137130945Y-70416815D01*
X137211013Y-70477497D01*
X137245778Y-70514780D01*
X137303924Y-70598958D01*
X137343705Y-70691587D01*
X137345429Y-70697473D01*
X137363795Y-70798666D01*
X137371010Y-70904412D01*
X137372295Y-70983726D01*
X137372295Y-71427271D01*
X137371103Y-71527886D01*
X137366821Y-71627591D01*
X137357090Y-71729295D01*
X137347383Y-71785331D01*
X137315165Y-71882116D01*
X137265826Y-71966965D01*
X137241870Y-71998311D01*
X137168407Y-72070018D01*
X137079788Y-72124796D01*
X137033775Y-72144368D01*
X136933162Y-72172944D01*
X136831520Y-72187553D01*
X136741660Y-72191263D01*
X136642514Y-72188094D01*
X136542776Y-72177141D01*
X136445735Y-72156057D01*
X136429518Y-72151207D01*
X136335280Y-72111573D01*
X136254711Y-72053924D01*
X136231193Y-72029574D01*
X136174049Y-71946040D01*
X136136595Y-71854518D01*
X136130565Y-71833203D01*
X136112109Y-71730529D01*
X136103857Y-71632246D01*
X136100545Y-71529572D01*
X136100279Y-71487355D01*
X136100279Y-71023293D01*
X136102897Y-70918300D01*
X136109593Y-70842065D01*
X136655198Y-70842065D01*
X136655198Y-71670048D01*
X136658848Y-71772008D01*
X136671807Y-71839553D01*
X136736287Y-71878632D01*
X136801256Y-71842972D01*
X136816368Y-71742314D01*
X136817376Y-71688122D01*
X136817376Y-70842065D01*
X136814477Y-70738882D01*
X136802233Y-70664745D01*
X136737752Y-70628108D01*
X136671807Y-70664745D01*
X136656820Y-70764299D01*
X136655198Y-70842065D01*
X136109593Y-70842065D01*
X136112300Y-70811246D01*
X136131053Y-70707304D01*
X136154989Y-70629574D01*
X136203270Y-70538484D01*
X136272216Y-70460670D01*
X136352826Y-70401451D01*
X136450008Y-70356113D01*
X136550686Y-70329667D01*
X136650688Y-70317576D01*
X136718213Y-70315478D01*
X136819239Y-70319844D01*
G37*
G36*
X138111374Y-70346741D02*
G01*
X138102093Y-70510872D01*
X138164675Y-70430014D01*
X138244207Y-70367427D01*
X138249616Y-70364326D01*
X138343649Y-70327690D01*
X138443784Y-70315525D01*
X138450872Y-70315478D01*
X138550798Y-70324889D01*
X138648625Y-70359657D01*
X138684368Y-70382400D01*
X138755272Y-70452761D01*
X138799434Y-70544611D01*
X138801116Y-70550928D01*
X138818195Y-70655974D01*
X138824918Y-70755052D01*
X138827391Y-70861221D01*
X138827494Y-70890425D01*
X138827494Y-72160000D01*
X138272575Y-72160000D01*
X138272575Y-70898729D01*
X138271334Y-70795546D01*
X138264823Y-70694617D01*
X138259874Y-70669630D01*
X138191486Y-70628108D01*
X138117236Y-70675491D01*
X138104991Y-70778875D01*
X138102330Y-70879587D01*
X138102093Y-70928527D01*
X138102093Y-72160000D01*
X137547173Y-72160000D01*
X137547173Y-70346741D01*
X138111374Y-70346741D01*
G37*
G36*
X139595882Y-70096636D02*
G01*
X139595882Y-70378004D01*
X139745359Y-70378004D01*
X139745359Y-70659371D01*
X139595882Y-70659371D01*
X139595882Y-71653440D01*
X139597695Y-71752091D01*
X139610094Y-71849842D01*
X139614445Y-71857627D01*
X139715004Y-71877627D01*
X139768806Y-71878632D01*
X139768806Y-72160000D01*
X139545080Y-72160000D01*
X139447046Y-72158763D01*
X139343021Y-72153268D01*
X139274459Y-72144368D01*
X139180540Y-72108189D01*
X139131332Y-72071095D01*
X139072523Y-71992747D01*
X139054640Y-71939692D01*
X139044288Y-71836483D01*
X139040695Y-71729746D01*
X139039556Y-71624877D01*
X139039497Y-71591402D01*
X139039497Y-70659371D01*
X138919818Y-70659371D01*
X138919818Y-70378004D01*
X139039497Y-70378004D01*
X139039497Y-70096636D01*
X139595882Y-70096636D01*
G37*
G36*
X140417515Y-70346741D02*
G01*
X140395533Y-70608080D01*
X140444609Y-70513553D01*
X140511544Y-70426408D01*
X140588905Y-70364181D01*
X140690083Y-70323576D01*
X140745778Y-70315478D01*
X140745778Y-70972002D01*
X140642806Y-70977704D01*
X140545970Y-71000866D01*
X140521563Y-71012547D01*
X140449358Y-71082631D01*
X140433635Y-71124410D01*
X140422616Y-71223145D01*
X140418790Y-71324536D01*
X140417578Y-71423913D01*
X140417515Y-71455603D01*
X140417515Y-72160000D01*
X139862595Y-72160000D01*
X139862595Y-70346741D01*
X140417515Y-70346741D01*
G37*
G36*
X141567320Y-70319844D02*
G01*
X141669692Y-70334937D01*
X141770290Y-70363992D01*
X141787229Y-70370676D01*
X141879026Y-70416815D01*
X141959094Y-70477497D01*
X141993859Y-70514780D01*
X142052005Y-70598958D01*
X142091786Y-70691587D01*
X142093510Y-70697473D01*
X142111876Y-70798666D01*
X142119091Y-70904412D01*
X142120376Y-70983726D01*
X142120376Y-71427271D01*
X142119184Y-71527886D01*
X142114902Y-71627591D01*
X142105171Y-71729295D01*
X142095464Y-71785331D01*
X142063246Y-71882116D01*
X142013907Y-71966965D01*
X141989951Y-71998311D01*
X141916488Y-72070018D01*
X141827869Y-72124796D01*
X141781856Y-72144368D01*
X141681243Y-72172944D01*
X141579601Y-72187553D01*
X141489741Y-72191263D01*
X141390595Y-72188094D01*
X141290857Y-72177141D01*
X141193816Y-72156057D01*
X141177599Y-72151207D01*
X141083361Y-72111573D01*
X141002792Y-72053924D01*
X140979274Y-72029574D01*
X140922130Y-71946040D01*
X140884676Y-71854518D01*
X140878646Y-71833203D01*
X140860190Y-71730529D01*
X140851938Y-71632246D01*
X140848626Y-71529572D01*
X140848360Y-71487355D01*
X140848360Y-71023293D01*
X140850978Y-70918300D01*
X140857674Y-70842065D01*
X141403279Y-70842065D01*
X141403279Y-71670048D01*
X141406929Y-71772008D01*
X141419888Y-71839553D01*
X141484368Y-71878632D01*
X141549337Y-71842972D01*
X141564449Y-71742314D01*
X141565457Y-71688122D01*
X141565457Y-70842065D01*
X141562558Y-70738882D01*
X141550314Y-70664745D01*
X141485833Y-70628108D01*
X141419888Y-70664745D01*
X141404901Y-70764299D01*
X141403279Y-70842065D01*
X140857674Y-70842065D01*
X140860381Y-70811246D01*
X140879134Y-70707304D01*
X140903070Y-70629574D01*
X140951351Y-70538484D01*
X141020297Y-70460670D01*
X141100907Y-70401451D01*
X141198089Y-70356113D01*
X141298767Y-70329667D01*
X141398769Y-70317576D01*
X141466294Y-70315478D01*
X141567320Y-70319844D01*
G37*
G36*
X142866782Y-69940321D02*
G01*
X142866782Y-72160000D01*
X142295254Y-72160000D01*
X142295254Y-69940321D01*
X142866782Y-69940321D01*
G37*
G36*
X143632728Y-69940321D02*
G01*
X143632728Y-72160000D01*
X143061200Y-72160000D01*
X143061200Y-69940321D01*
X143632728Y-69940321D01*
G37*
G36*
X144522814Y-70319685D02*
G01*
X144625541Y-70334798D01*
X144728920Y-70364937D01*
X144809979Y-70403405D01*
X144896055Y-70463941D01*
X144964386Y-70535640D01*
X145019053Y-70627401D01*
X145022958Y-70636413D01*
X145055158Y-70738632D01*
X145072332Y-70837031D01*
X145081097Y-70935252D01*
X145084019Y-71044787D01*
X145084019Y-71284633D01*
X144365457Y-71284633D01*
X144365457Y-71682260D01*
X144369853Y-71784720D01*
X144383042Y-71842972D01*
X144451919Y-71878632D01*
X144536427Y-71831737D01*
X144555380Y-71731680D01*
X144557920Y-71649043D01*
X144557920Y-71409685D01*
X145084019Y-71409685D01*
X145084019Y-71542065D01*
X145081479Y-71647464D01*
X145071929Y-71748511D01*
X145062526Y-71798032D01*
X145027110Y-71890111D01*
X144972480Y-71975890D01*
X144962875Y-71988541D01*
X144892438Y-72062394D01*
X144808135Y-72119640D01*
X144764549Y-72140460D01*
X144665837Y-72171418D01*
X144560265Y-72187244D01*
X144463154Y-72191263D01*
X144357252Y-72186349D01*
X144259364Y-72171609D01*
X144160943Y-72144044D01*
X144152477Y-72140949D01*
X144060039Y-72097626D01*
X143978657Y-72038910D01*
X143942916Y-72002219D01*
X143886309Y-71921916D01*
X143845165Y-71828407D01*
X143839357Y-71808778D01*
X143820697Y-71706851D01*
X143812817Y-71606940D01*
X143810537Y-71501032D01*
X143810537Y-70972979D01*
X143813622Y-70873930D01*
X143814809Y-70863070D01*
X144365457Y-70863070D01*
X144365457Y-71003265D01*
X144527634Y-71003265D01*
X144527634Y-70863070D01*
X144525135Y-70759828D01*
X144512491Y-70671584D01*
X144450453Y-70628108D01*
X144379134Y-70665233D01*
X144367073Y-70766964D01*
X144365457Y-70863070D01*
X143814809Y-70863070D01*
X143824705Y-70772524D01*
X143846807Y-70673476D01*
X143875017Y-70598799D01*
X143929102Y-70512049D01*
X144002697Y-70440537D01*
X144086531Y-70388750D01*
X144182721Y-70350110D01*
X144287497Y-70325782D01*
X144389138Y-70316122D01*
X144424563Y-70315478D01*
X144522814Y-70319685D01*
G37*
G36*
X145812351Y-70346741D02*
G01*
X145790369Y-70608080D01*
X145839445Y-70513553D01*
X145906380Y-70426408D01*
X145983741Y-70364181D01*
X146084919Y-70323576D01*
X146140614Y-70315478D01*
X146140614Y-70972002D01*
X146037642Y-70977704D01*
X145940806Y-71000866D01*
X145916399Y-71012547D01*
X145844194Y-71082631D01*
X145828471Y-71124410D01*
X145817452Y-71223145D01*
X145813626Y-71324536D01*
X145812414Y-71423913D01*
X145812351Y-71455603D01*
X145812351Y-72160000D01*
X145257431Y-72160000D01*
X145257431Y-70346741D01*
X145812351Y-70346741D01*
G37*
G36*
X148142428Y-69940321D02*
G01*
X147848360Y-72160000D01*
X146970551Y-72160000D01*
X146636427Y-69940321D01*
X147246545Y-69940321D01*
X147259557Y-70053832D01*
X147272091Y-70165390D01*
X147284149Y-70274994D01*
X147295730Y-70382644D01*
X147306833Y-70488340D01*
X147317460Y-70592083D01*
X147327609Y-70693871D01*
X147337281Y-70793705D01*
X147346477Y-70891585D01*
X147359375Y-71034742D01*
X147371201Y-71173503D01*
X147381953Y-71307867D01*
X147391631Y-71437834D01*
X147397487Y-71522037D01*
X147406040Y-71397353D01*
X147414661Y-71275726D01*
X147423350Y-71157156D01*
X147432109Y-71041642D01*
X147440936Y-70929185D01*
X147449832Y-70819786D01*
X147458796Y-70713443D01*
X147467829Y-70610157D01*
X147476931Y-70509927D01*
X147489174Y-70381043D01*
X147492254Y-70349672D01*
X147532309Y-69940321D01*
X148142428Y-69940321D01*
G37*
G36*
X149073482Y-69940321D02*
G01*
X149073482Y-72160000D01*
X148518073Y-72160000D01*
X148518073Y-70954905D01*
X148517466Y-70850740D01*
X148514898Y-70746078D01*
X148506911Y-70648705D01*
X148505373Y-70641297D01*
X148440911Y-70563379D01*
X148437473Y-70561674D01*
X148340085Y-70540330D01*
X148235782Y-70534747D01*
X148189811Y-70534319D01*
X148135101Y-70534319D01*
X148135101Y-70292030D01*
X148232699Y-70267835D01*
X148346174Y-70229648D01*
X148450180Y-70182636D01*
X148544716Y-70126799D01*
X148629784Y-70062137D01*
X148705382Y-69988649D01*
X148746196Y-69940321D01*
X149073482Y-69940321D01*
G37*
G36*
X149651849Y-71722316D02*
G01*
X149651849Y-72160000D01*
X149232728Y-72160000D01*
X149232728Y-71722316D01*
X149651849Y-71722316D01*
G37*
G36*
X150542420Y-69914042D02*
G01*
X150646051Y-69931273D01*
X150742145Y-69960811D01*
X150769504Y-69972072D01*
X150859975Y-70018742D01*
X150939052Y-70077292D01*
X150984926Y-70126434D01*
X151038875Y-70210423D01*
X151075059Y-70303387D01*
X151082135Y-70331598D01*
X151097614Y-70436057D01*
X151104535Y-70539466D01*
X151107313Y-70649421D01*
X151107536Y-70695031D01*
X151107536Y-71428248D01*
X151106227Y-71530980D01*
X151101525Y-71632532D01*
X151090840Y-71735686D01*
X151080181Y-71792170D01*
X151044838Y-71888955D01*
X150991592Y-71973803D01*
X150965875Y-72005150D01*
X150889740Y-72076529D01*
X150801834Y-72129526D01*
X150757292Y-72147787D01*
X150661579Y-72174280D01*
X150557623Y-72188545D01*
X150483740Y-72191263D01*
X150377201Y-72187669D01*
X150271241Y-72175247D01*
X150169783Y-72151335D01*
X150153035Y-72145833D01*
X150061604Y-72104617D01*
X149979453Y-72043843D01*
X149942498Y-72004173D01*
X149886412Y-71923975D01*
X149842601Y-71834002D01*
X149831123Y-71800963D01*
X149811179Y-71703441D01*
X149801591Y-71595201D01*
X149798522Y-71490955D01*
X149798394Y-71462442D01*
X149798394Y-70695031D01*
X149800249Y-70586816D01*
X149805935Y-70493286D01*
X150353314Y-70493286D01*
X150353314Y-71599706D01*
X150354783Y-71698547D01*
X150362088Y-71797387D01*
X150371877Y-71838087D01*
X150452477Y-71878632D01*
X150533077Y-71831249D01*
X150549392Y-71732554D01*
X150552597Y-71627098D01*
X150552616Y-71616803D01*
X150552616Y-70493286D01*
X150550947Y-70393538D01*
X150542181Y-70293468D01*
X150535519Y-70267117D01*
X150454919Y-70221688D01*
X150373342Y-70270048D01*
X150356620Y-70372078D01*
X150353392Y-70471921D01*
X150353314Y-70493286D01*
X149805935Y-70493286D01*
X149807101Y-70474109D01*
X149819002Y-70375989D01*
X149841723Y-70271266D01*
X149851151Y-70241716D01*
X149894590Y-70153245D01*
X149958351Y-70076509D01*
X150042433Y-70011508D01*
X150061688Y-69999916D01*
X150155420Y-69955995D01*
X150259662Y-69926448D01*
X150361145Y-69912252D01*
X150442707Y-69909057D01*
X150542420Y-69914042D01*
G37*
D13*
G36*
X128900209Y-118440321D02*
G01*
X128900209Y-120660000D01*
X128394626Y-120660000D01*
X128394626Y-119161325D01*
X128192393Y-120660000D01*
X127833845Y-120660000D01*
X127620865Y-119192588D01*
X127620865Y-120660000D01*
X127115282Y-120660000D01*
X127115282Y-118440321D01*
X127864131Y-118440321D01*
X127880983Y-118543238D01*
X127896130Y-118641055D01*
X127911651Y-118746118D01*
X127927546Y-118858428D01*
X127934473Y-118908778D01*
X128014096Y-119476887D01*
X128145987Y-118440321D01*
X128900209Y-118440321D01*
G37*
G36*
X129807989Y-118818964D02*
G01*
X129913219Y-118831843D01*
X130017167Y-118858183D01*
X130113308Y-118902632D01*
X130131681Y-118914640D01*
X130209973Y-118980748D01*
X130270307Y-119063715D01*
X130303628Y-119157418D01*
X130317560Y-119262626D01*
X130325244Y-119377847D01*
X130329043Y-119478036D01*
X130331436Y-119593133D01*
X130332336Y-119695944D01*
X130332449Y-119750928D01*
X130332449Y-120660000D01*
X129792672Y-120660000D01*
X129792672Y-120494891D01*
X129738498Y-120576207D01*
X129661270Y-120642414D01*
X129567328Y-120680529D01*
X129469783Y-120691263D01*
X129372533Y-120681565D01*
X129272893Y-120648867D01*
X129202581Y-120609197D01*
X129133331Y-120529410D01*
X129098053Y-120429869D01*
X129083918Y-120331131D01*
X129080949Y-120249183D01*
X129080949Y-120148066D01*
X129601674Y-120148066D01*
X129604738Y-120249330D01*
X129620237Y-120336133D01*
X129693510Y-120378632D01*
X129761409Y-120345415D01*
X129775955Y-120248485D01*
X129777529Y-120170537D01*
X129777529Y-119784633D01*
X129699065Y-119849948D01*
X129634672Y-119926548D01*
X129622679Y-119953161D01*
X129605141Y-120054629D01*
X129601674Y-120148066D01*
X129080949Y-120148066D01*
X129080949Y-120098241D01*
X129086049Y-119992917D01*
X129106136Y-119892314D01*
X129145429Y-119817850D01*
X129229421Y-119753094D01*
X129324596Y-119703541D01*
X129419565Y-119662328D01*
X129465875Y-119643949D01*
X129559344Y-119605956D01*
X129656186Y-119563046D01*
X129741915Y-119515281D01*
X129757990Y-119498869D01*
X129776308Y-119401691D01*
X129777529Y-119350858D01*
X129773415Y-119247982D01*
X129756036Y-119170118D01*
X129685694Y-119128108D01*
X129615352Y-119163768D01*
X129603010Y-119266134D01*
X129601674Y-119347927D01*
X129601674Y-119534528D01*
X129080949Y-119534528D01*
X129080949Y-119415338D01*
X129084813Y-119307116D01*
X129098170Y-119204362D01*
X129126792Y-119105364D01*
X129129797Y-119098311D01*
X129185691Y-119011775D01*
X129258299Y-118945354D01*
X129325680Y-118900963D01*
X129415303Y-118859639D01*
X129518760Y-118831840D01*
X129622334Y-118818483D01*
X129707187Y-118815478D01*
X129807989Y-118818964D01*
G37*
G36*
X131615701Y-118846741D02*
G01*
X131394417Y-119712826D01*
X131662107Y-120660000D01*
X131122330Y-120660000D01*
X131098378Y-120548616D01*
X131076287Y-120441001D01*
X131056056Y-120337155D01*
X131037685Y-120237078D01*
X131021175Y-120140769D01*
X131003818Y-120030173D01*
X131001186Y-120012267D01*
X130983850Y-120120431D01*
X130966038Y-120226018D01*
X130947748Y-120329029D01*
X130928982Y-120429465D01*
X130909738Y-120527324D01*
X130886016Y-120641355D01*
X130881995Y-120660000D01*
X130417445Y-120660000D01*
X130656315Y-119712826D01*
X130417445Y-118846741D01*
X130881995Y-118846741D01*
X130901885Y-118946017D01*
X130925599Y-119066390D01*
X130946108Y-119173056D01*
X130967236Y-119287110D01*
X130985978Y-119395703D01*
X130999747Y-119492515D01*
X131001186Y-119508150D01*
X131020496Y-119388181D01*
X131038616Y-119278867D01*
X131055545Y-119180208D01*
X131075032Y-119071869D01*
X131095961Y-118963837D01*
X131116991Y-118868100D01*
X131122330Y-118846741D01*
X131615701Y-118846741D01*
G37*
G36*
X133589183Y-119409476D02*
G01*
X133010816Y-119409476D01*
X133010816Y-119030900D01*
X133008623Y-118932327D01*
X132995571Y-118834027D01*
X132992254Y-118825247D01*
X132910676Y-118784214D01*
X132822463Y-118828006D01*
X132819818Y-118834040D01*
X132803911Y-118933849D01*
X132800786Y-119038767D01*
X132800767Y-119048974D01*
X132800767Y-120060628D01*
X132803446Y-120164171D01*
X132817511Y-120261269D01*
X132819818Y-120267745D01*
X132906280Y-120316106D01*
X132990788Y-120266769D01*
X133006983Y-120168365D01*
X133010640Y-120066534D01*
X133010816Y-120033272D01*
X133010816Y-119753370D01*
X133589183Y-119753370D01*
X133589183Y-119839832D01*
X133587990Y-119942855D01*
X133583411Y-120053543D01*
X133573727Y-120164837D01*
X133556935Y-120268503D01*
X133540334Y-120329783D01*
X133492782Y-120424698D01*
X133425310Y-120503772D01*
X133344845Y-120569065D01*
X133324424Y-120582819D01*
X133236252Y-120630263D01*
X133138311Y-120664152D01*
X133030600Y-120684485D01*
X132928338Y-120691157D01*
X132913119Y-120691263D01*
X132806243Y-120686938D01*
X132707875Y-120673965D01*
X132605873Y-120648549D01*
X132514984Y-120611836D01*
X132493998Y-120600893D01*
X132410171Y-120544298D01*
X132337604Y-120468545D01*
X132286695Y-120379243D01*
X132275645Y-120349811D01*
X132249906Y-120246857D01*
X132235711Y-120149043D01*
X132226612Y-120035709D01*
X132222868Y-119926212D01*
X132222400Y-119867187D01*
X132222400Y-119227271D01*
X132223171Y-119129491D01*
X132225942Y-119031595D01*
X132232239Y-118930005D01*
X132238520Y-118872630D01*
X132262737Y-118777717D01*
X132308398Y-118685867D01*
X132336706Y-118644508D01*
X132407048Y-118568968D01*
X132486976Y-118511189D01*
X132563363Y-118472072D01*
X132658284Y-118438842D01*
X132761696Y-118417919D01*
X132862027Y-118409611D01*
X132896999Y-118409057D01*
X133004493Y-118413732D01*
X133103432Y-118427757D01*
X133206029Y-118455235D01*
X133297452Y-118494924D01*
X133318562Y-118506755D01*
X133402982Y-118565260D01*
X133475663Y-118639239D01*
X133529937Y-118731525D01*
X133536915Y-118749532D01*
X133562181Y-118843929D01*
X133577698Y-118949313D01*
X133585916Y-119058102D01*
X133588979Y-119163667D01*
X133589183Y-119201381D01*
X133589183Y-119409476D01*
G37*
G36*
X135042428Y-118846741D02*
G01*
X135042428Y-120660000D01*
X134477739Y-120660000D01*
X134487508Y-120505638D01*
X134423150Y-120586849D01*
X134345359Y-120644856D01*
X134248400Y-120681066D01*
X134150942Y-120691263D01*
X134049655Y-120682941D01*
X133953820Y-120653052D01*
X133943335Y-120647787D01*
X133864458Y-120589364D01*
X133821702Y-120531528D01*
X133784303Y-120438677D01*
X133772854Y-120380586D01*
X133766509Y-120282131D01*
X133764153Y-120175513D01*
X133763572Y-120068443D01*
X133763572Y-118846741D01*
X134318492Y-118846741D01*
X134318492Y-120086029D01*
X134319497Y-120192151D01*
X134323962Y-120291093D01*
X134331193Y-120339064D01*
X134402512Y-120378632D01*
X134475785Y-120337599D01*
X134485264Y-120233237D01*
X134487325Y-120125436D01*
X134487508Y-120072351D01*
X134487508Y-118846741D01*
X135042428Y-118846741D01*
G37*
G36*
X135788346Y-118846741D02*
G01*
X135766364Y-119108080D01*
X135815439Y-119013553D01*
X135882375Y-118926408D01*
X135959735Y-118864181D01*
X136060913Y-118823576D01*
X136116608Y-118815478D01*
X136116608Y-119472002D01*
X136013637Y-119477704D01*
X135916801Y-119500866D01*
X135892393Y-119512547D01*
X135820189Y-119582631D01*
X135804466Y-119624410D01*
X135793446Y-119723145D01*
X135789621Y-119824536D01*
X135788409Y-119923913D01*
X135788346Y-119955603D01*
X135788346Y-120660000D01*
X135233426Y-120660000D01*
X135233426Y-118846741D01*
X135788346Y-118846741D01*
G37*
G36*
X136790718Y-118846741D02*
G01*
X136768736Y-119108080D01*
X136817812Y-119013553D01*
X136884747Y-118926408D01*
X136962108Y-118864181D01*
X137063286Y-118823576D01*
X137118981Y-118815478D01*
X137118981Y-119472002D01*
X137016009Y-119477704D01*
X136919173Y-119500866D01*
X136894766Y-119512547D01*
X136822561Y-119582631D01*
X136806838Y-119624410D01*
X136795819Y-119723145D01*
X136791993Y-119824536D01*
X136790781Y-119923913D01*
X136790718Y-119955603D01*
X136790718Y-120660000D01*
X136235799Y-120660000D01*
X136235799Y-118846741D01*
X136790718Y-118846741D01*
G37*
G36*
X137933840Y-118819685D02*
G01*
X138036567Y-118834798D01*
X138139946Y-118864937D01*
X138221004Y-118903405D01*
X138307081Y-118963941D01*
X138375412Y-119035640D01*
X138430079Y-119127401D01*
X138433984Y-119136413D01*
X138466184Y-119238632D01*
X138483357Y-119337031D01*
X138492123Y-119435252D01*
X138495045Y-119544787D01*
X138495045Y-119784633D01*
X137776482Y-119784633D01*
X137776482Y-120182260D01*
X137780879Y-120284720D01*
X137794068Y-120342972D01*
X137862944Y-120378632D01*
X137947452Y-120331737D01*
X137966406Y-120231680D01*
X137968946Y-120149043D01*
X137968946Y-119909685D01*
X138495045Y-119909685D01*
X138495045Y-120042065D01*
X138492505Y-120147464D01*
X138482955Y-120248511D01*
X138473551Y-120298032D01*
X138438136Y-120390111D01*
X138383506Y-120475890D01*
X138373900Y-120488541D01*
X138303464Y-120562394D01*
X138219161Y-120619640D01*
X138175575Y-120640460D01*
X138076863Y-120671418D01*
X137971290Y-120687244D01*
X137874180Y-120691263D01*
X137768277Y-120686349D01*
X137670389Y-120671609D01*
X137571969Y-120644044D01*
X137563503Y-120640949D01*
X137471064Y-120597626D01*
X137389682Y-120538910D01*
X137353942Y-120502219D01*
X137297335Y-120421916D01*
X137256191Y-120328407D01*
X137250383Y-120308778D01*
X137231723Y-120206851D01*
X137223842Y-120106940D01*
X137221563Y-120001032D01*
X137221563Y-119472979D01*
X137224648Y-119373930D01*
X137225835Y-119363070D01*
X137776482Y-119363070D01*
X137776482Y-119503265D01*
X137938660Y-119503265D01*
X137938660Y-119363070D01*
X137936160Y-119259828D01*
X137923517Y-119171584D01*
X137861479Y-119128108D01*
X137790160Y-119165233D01*
X137778099Y-119266964D01*
X137776482Y-119363070D01*
X137225835Y-119363070D01*
X137235731Y-119272524D01*
X137257833Y-119173476D01*
X137286043Y-119098799D01*
X137340128Y-119012049D01*
X137413723Y-118940537D01*
X137497557Y-118888750D01*
X137593747Y-118850110D01*
X137698523Y-118825782D01*
X137800163Y-118816122D01*
X137835589Y-118815478D01*
X137933840Y-118819685D01*
G37*
G36*
X139232658Y-118846741D02*
G01*
X139223377Y-119010872D01*
X139285959Y-118930014D01*
X139365491Y-118867427D01*
X139370900Y-118864326D01*
X139464933Y-118827690D01*
X139565068Y-118815525D01*
X139572156Y-118815478D01*
X139672082Y-118824889D01*
X139769909Y-118859657D01*
X139805652Y-118882400D01*
X139876556Y-118952761D01*
X139920719Y-119044611D01*
X139922400Y-119050928D01*
X139939479Y-119155974D01*
X139946202Y-119255052D01*
X139948675Y-119361221D01*
X139948778Y-119390425D01*
X139948778Y-120660000D01*
X139393859Y-120660000D01*
X139393859Y-119398729D01*
X139392618Y-119295546D01*
X139386107Y-119194617D01*
X139381158Y-119169630D01*
X139312770Y-119128108D01*
X139238520Y-119175491D01*
X139226276Y-119278875D01*
X139223614Y-119379587D01*
X139223377Y-119428527D01*
X139223377Y-120660000D01*
X138668457Y-120660000D01*
X138668457Y-118846741D01*
X139232658Y-118846741D01*
G37*
G36*
X140717166Y-118596636D02*
G01*
X140717166Y-118878004D01*
X140866643Y-118878004D01*
X140866643Y-119159371D01*
X140717166Y-119159371D01*
X140717166Y-120153440D01*
X140718979Y-120252091D01*
X140731378Y-120349842D01*
X140735729Y-120357627D01*
X140836288Y-120377627D01*
X140890090Y-120378632D01*
X140890090Y-120660000D01*
X140666364Y-120660000D01*
X140568330Y-120658763D01*
X140464305Y-120653268D01*
X140395743Y-120644368D01*
X140301824Y-120608189D01*
X140252616Y-120571095D01*
X140193807Y-120492747D01*
X140175924Y-120439692D01*
X140165572Y-120336483D01*
X140161979Y-120229746D01*
X140160840Y-120124877D01*
X140160781Y-120091402D01*
X140160781Y-119159371D01*
X140041102Y-119159371D01*
X140041102Y-118878004D01*
X140160781Y-118878004D01*
X140160781Y-118596636D01*
X140717166Y-118596636D01*
G37*
G36*
X142332100Y-118440321D02*
G01*
X142332100Y-120660000D01*
X141776692Y-120660000D01*
X141776692Y-119454905D01*
X141776084Y-119350740D01*
X141773517Y-119246078D01*
X141765529Y-119148705D01*
X141763991Y-119141297D01*
X141699530Y-119063379D01*
X141696092Y-119061674D01*
X141598703Y-119040330D01*
X141494400Y-119034747D01*
X141448429Y-119034319D01*
X141393719Y-119034319D01*
X141393719Y-118792030D01*
X141491317Y-118767835D01*
X141604792Y-118729648D01*
X141708798Y-118682636D01*
X141803335Y-118626799D01*
X141888402Y-118562137D01*
X141964001Y-118488649D01*
X142004815Y-118440321D01*
X142332100Y-118440321D01*
G37*
G36*
X142910467Y-120222316D02*
G01*
X142910467Y-120660000D01*
X142491346Y-120660000D01*
X142491346Y-120222316D01*
X142910467Y-120222316D01*
G37*
G36*
X144268457Y-118440321D02*
G01*
X144268457Y-118752951D01*
X143580181Y-118752951D01*
X143580181Y-119155464D01*
X143658633Y-119081790D01*
X143748909Y-119032228D01*
X143851009Y-119006777D01*
X143912840Y-119003056D01*
X144020398Y-119011116D01*
X144124687Y-119039452D01*
X144211280Y-119088190D01*
X144259176Y-119132016D01*
X144316084Y-119223061D01*
X144347470Y-119319839D01*
X144365405Y-119420875D01*
X144375062Y-119538604D01*
X144376901Y-119626364D01*
X144376901Y-119944368D01*
X144375466Y-120054735D01*
X144370422Y-120160141D01*
X144359323Y-120261998D01*
X144353942Y-120291681D01*
X144324370Y-120385528D01*
X144274976Y-120473016D01*
X144257222Y-120496845D01*
X144187536Y-120565874D01*
X144098340Y-120620552D01*
X144050593Y-120640949D01*
X143952655Y-120669594D01*
X143851600Y-120685317D01*
X143750861Y-120691066D01*
X143727215Y-120691263D01*
X143623168Y-120686591D01*
X143525471Y-120672578D01*
X143423152Y-120645646D01*
X143349127Y-120616524D01*
X143256363Y-120562705D01*
X143182012Y-120494670D01*
X143126074Y-120412419D01*
X143117096Y-120394263D01*
X143084038Y-120298217D01*
X143063735Y-120191369D01*
X143052983Y-120081297D01*
X143048976Y-119974633D01*
X143048709Y-119936552D01*
X143048709Y-119815896D01*
X143603628Y-119815896D01*
X143603628Y-119961465D01*
X143604575Y-120066581D01*
X143607902Y-120165203D01*
X143616065Y-120264362D01*
X143618771Y-120283377D01*
X143670623Y-120367376D01*
X143723307Y-120378632D01*
X143789741Y-120351277D01*
X143817096Y-120291193D01*
X143819604Y-120187225D01*
X143821089Y-120084469D01*
X143821981Y-120012756D01*
X143821981Y-119544787D01*
X143816932Y-119444796D01*
X143795603Y-119364047D01*
X143709141Y-119315687D01*
X143644661Y-119341577D01*
X143610956Y-119397264D01*
X143603886Y-119496810D01*
X143603628Y-119534528D01*
X143054082Y-119534528D01*
X143077529Y-118440321D01*
X144268457Y-118440321D01*
G37*
G36*
X145905861Y-120660000D02*
G01*
X145313817Y-120660000D01*
X145284996Y-120253579D01*
X145077390Y-120253579D01*
X145043196Y-120660000D01*
X144443824Y-120660000D01*
X144547369Y-119878422D01*
X145070551Y-119878422D01*
X145268387Y-119878422D01*
X145257397Y-119777626D01*
X145246406Y-119670877D01*
X145235415Y-119558174D01*
X145224424Y-119439518D01*
X145213433Y-119314908D01*
X145205190Y-119217544D01*
X145196946Y-119116831D01*
X145188703Y-119012769D01*
X145180460Y-118905359D01*
X145164553Y-119027212D01*
X145149806Y-119142729D01*
X145136217Y-119251908D01*
X145123788Y-119354750D01*
X145109019Y-119482016D01*
X145096311Y-119598016D01*
X145085663Y-119702751D01*
X145075252Y-119817826D01*
X145070551Y-119878422D01*
X144547369Y-119878422D01*
X144737892Y-118440321D01*
X145574668Y-118440321D01*
X145905861Y-120660000D01*
G37*
G36*
X147047452Y-118377794D02*
G01*
X146387997Y-120691263D01*
X145967899Y-120691263D01*
X146631263Y-118377794D01*
X147047452Y-118377794D01*
G37*
G36*
X148288206Y-119878422D02*
G01*
X148445987Y-119878422D01*
X148445987Y-120253579D01*
X148288206Y-120253579D01*
X148288206Y-120660000D01*
X147733286Y-120660000D01*
X147733286Y-120253579D01*
X147073831Y-120253579D01*
X147073831Y-119878422D01*
X147488555Y-119878422D01*
X147733286Y-119878422D01*
X147733286Y-118931737D01*
X147488555Y-119878422D01*
X147073831Y-119878422D01*
X147553035Y-118440321D01*
X148288206Y-118440321D01*
X148288206Y-119878422D01*
G37*
G36*
X149780041Y-119534528D02*
G01*
X149256873Y-119534528D01*
X149256873Y-119320083D01*
X149251772Y-119221495D01*
X149238799Y-119168164D01*
X149172854Y-119128108D01*
X149108374Y-119162791D01*
X149092803Y-119262717D01*
X149091765Y-119317641D01*
X149091765Y-120182260D01*
X149100376Y-120281635D01*
X149116189Y-120329783D01*
X149189462Y-120378632D01*
X149265666Y-120326852D01*
X149282877Y-120226064D01*
X149285694Y-120130969D01*
X149285694Y-119909685D01*
X149780041Y-119909685D01*
X149778484Y-120011840D01*
X149774762Y-120110561D01*
X149766553Y-120215501D01*
X149763921Y-120236971D01*
X149739371Y-120333315D01*
X149694807Y-120424620D01*
X149672086Y-120460209D01*
X149607171Y-120538107D01*
X149528929Y-120600343D01*
X149469364Y-120633133D01*
X149376685Y-120666228D01*
X149280209Y-120684394D01*
X149172093Y-120691206D01*
X149160642Y-120691263D01*
X149062497Y-120687452D01*
X148961724Y-120673767D01*
X148862879Y-120646475D01*
X148787927Y-120611639D01*
X148703024Y-120549059D01*
X148637054Y-120471471D01*
X148593510Y-120387913D01*
X148563628Y-120286066D01*
X148547691Y-120187620D01*
X148539557Y-120089109D01*
X148536845Y-119979050D01*
X148536845Y-119464675D01*
X148539746Y-119356475D01*
X148549942Y-119251684D01*
X148572375Y-119147953D01*
X148583251Y-119116873D01*
X148633260Y-119032518D01*
X148705171Y-118961468D01*
X148782554Y-118907801D01*
X148873735Y-118863172D01*
X148975273Y-118833149D01*
X149074222Y-118818723D01*
X149153803Y-118815478D01*
X149258308Y-118821217D01*
X149354937Y-118838436D01*
X149454229Y-118871529D01*
X149524563Y-118907313D01*
X149610668Y-118969385D01*
X149682133Y-119048463D01*
X149729239Y-119138855D01*
X149756029Y-119237525D01*
X149771657Y-119345743D01*
X149778801Y-119457377D01*
X149780041Y-119534528D01*
G37*
G36*
X150491765Y-118440321D02*
G01*
X150491765Y-118950788D01*
X150570850Y-118888295D01*
X150646127Y-118849183D01*
X150743259Y-118821929D01*
X150823935Y-118815478D01*
X150926998Y-118825850D01*
X151024851Y-118860498D01*
X151071598Y-118889239D01*
X151146023Y-118958081D01*
X151193528Y-119047291D01*
X151196650Y-119059232D01*
X151211515Y-119163702D01*
X151217367Y-119266819D01*
X151219519Y-119379629D01*
X151219609Y-119410942D01*
X151219609Y-120660000D01*
X150664689Y-120660000D01*
X150664689Y-119377725D01*
X150662422Y-119274364D01*
X150649561Y-119176458D01*
X150648569Y-119173538D01*
X150578227Y-119128108D01*
X150509351Y-119175003D01*
X150493843Y-119275672D01*
X150491765Y-119360139D01*
X150491765Y-120660000D01*
X149936845Y-120660000D01*
X149936845Y-118440321D01*
X150491765Y-118440321D01*
G37*
D10*
G36*
X94543963Y-111689106D02*
G01*
X94790648Y-111689106D01*
X94790648Y-111439002D01*
X94958199Y-111439002D01*
X94958199Y-111689106D01*
X95206106Y-111689106D01*
X95206106Y-111861053D01*
X94958199Y-111861053D01*
X94958199Y-112111158D01*
X94790648Y-112111158D01*
X94790648Y-111861053D01*
X94543963Y-111861053D01*
X94543963Y-111689106D01*
G37*
D12*
X125045180Y-102380952D02*
X125045180Y-102952380D01*
X124045180Y-102666666D02*
X125045180Y-102666666D01*
X124045180Y-103285714D02*
X125045180Y-103285714D01*
X125045180Y-103285714D02*
X125045180Y-103523809D01*
X125045180Y-103523809D02*
X124997561Y-103666666D01*
X124997561Y-103666666D02*
X124902323Y-103761904D01*
X124902323Y-103761904D02*
X124807085Y-103809523D01*
X124807085Y-103809523D02*
X124616609Y-103857142D01*
X124616609Y-103857142D02*
X124473752Y-103857142D01*
X124473752Y-103857142D02*
X124283276Y-103809523D01*
X124283276Y-103809523D02*
X124188038Y-103761904D01*
X124188038Y-103761904D02*
X124092800Y-103666666D01*
X124092800Y-103666666D02*
X124045180Y-103523809D01*
X124045180Y-103523809D02*
X124045180Y-103285714D01*
X125045180Y-104714285D02*
X125045180Y-104523809D01*
X125045180Y-104523809D02*
X124997561Y-104428571D01*
X124997561Y-104428571D02*
X124949942Y-104380952D01*
X124949942Y-104380952D02*
X124807085Y-104285714D01*
X124807085Y-104285714D02*
X124616609Y-104238095D01*
X124616609Y-104238095D02*
X124235657Y-104238095D01*
X124235657Y-104238095D02*
X124140419Y-104285714D01*
X124140419Y-104285714D02*
X124092800Y-104333333D01*
X124092800Y-104333333D02*
X124045180Y-104428571D01*
X124045180Y-104428571D02*
X124045180Y-104619047D01*
X124045180Y-104619047D02*
X124092800Y-104714285D01*
X124092800Y-104714285D02*
X124140419Y-104761904D01*
X124140419Y-104761904D02*
X124235657Y-104809523D01*
X124235657Y-104809523D02*
X124473752Y-104809523D01*
X124473752Y-104809523D02*
X124568990Y-104761904D01*
X124568990Y-104761904D02*
X124616609Y-104714285D01*
X124616609Y-104714285D02*
X124664228Y-104619047D01*
X124664228Y-104619047D02*
X124664228Y-104428571D01*
X124664228Y-104428571D02*
X124616609Y-104333333D01*
X124616609Y-104333333D02*
X124568990Y-104285714D01*
X124568990Y-104285714D02*
X124473752Y-104238095D01*
X124949942Y-105190476D02*
X124997561Y-105238095D01*
X124997561Y-105238095D02*
X125045180Y-105333333D01*
X125045180Y-105333333D02*
X125045180Y-105571428D01*
X125045180Y-105571428D02*
X124997561Y-105666666D01*
X124997561Y-105666666D02*
X124949942Y-105714285D01*
X124949942Y-105714285D02*
X124854704Y-105761904D01*
X124854704Y-105761904D02*
X124759466Y-105761904D01*
X124759466Y-105761904D02*
X124616609Y-105714285D01*
X124616609Y-105714285D02*
X124045180Y-105142857D01*
X124045180Y-105142857D02*
X124045180Y-105761904D01*
X125045180Y-106380952D02*
X125045180Y-106476190D01*
X125045180Y-106476190D02*
X124997561Y-106571428D01*
X124997561Y-106571428D02*
X124949942Y-106619047D01*
X124949942Y-106619047D02*
X124854704Y-106666666D01*
X124854704Y-106666666D02*
X124664228Y-106714285D01*
X124664228Y-106714285D02*
X124426133Y-106714285D01*
X124426133Y-106714285D02*
X124235657Y-106666666D01*
X124235657Y-106666666D02*
X124140419Y-106619047D01*
X124140419Y-106619047D02*
X124092800Y-106571428D01*
X124092800Y-106571428D02*
X124045180Y-106476190D01*
X124045180Y-106476190D02*
X124045180Y-106380952D01*
X124045180Y-106380952D02*
X124092800Y-106285714D01*
X124092800Y-106285714D02*
X124140419Y-106238095D01*
X124140419Y-106238095D02*
X124235657Y-106190476D01*
X124235657Y-106190476D02*
X124426133Y-106142857D01*
X124426133Y-106142857D02*
X124664228Y-106142857D01*
X124664228Y-106142857D02*
X124854704Y-106190476D01*
X124854704Y-106190476D02*
X124949942Y-106238095D01*
X124949942Y-106238095D02*
X124997561Y-106285714D01*
X124997561Y-106285714D02*
X125045180Y-106380952D01*
X125045180Y-107571428D02*
X125045180Y-107380952D01*
X125045180Y-107380952D02*
X124997561Y-107285714D01*
X124997561Y-107285714D02*
X124949942Y-107238095D01*
X124949942Y-107238095D02*
X124807085Y-107142857D01*
X124807085Y-107142857D02*
X124616609Y-107095238D01*
X124616609Y-107095238D02*
X124235657Y-107095238D01*
X124235657Y-107095238D02*
X124140419Y-107142857D01*
X124140419Y-107142857D02*
X124092800Y-107190476D01*
X124092800Y-107190476D02*
X124045180Y-107285714D01*
X124045180Y-107285714D02*
X124045180Y-107476190D01*
X124045180Y-107476190D02*
X124092800Y-107571428D01*
X124092800Y-107571428D02*
X124140419Y-107619047D01*
X124140419Y-107619047D02*
X124235657Y-107666666D01*
X124235657Y-107666666D02*
X124473752Y-107666666D01*
X124473752Y-107666666D02*
X124568990Y-107619047D01*
X124568990Y-107619047D02*
X124616609Y-107571428D01*
X124616609Y-107571428D02*
X124664228Y-107476190D01*
X124664228Y-107476190D02*
X124664228Y-107285714D01*
X124664228Y-107285714D02*
X124616609Y-107190476D01*
X124616609Y-107190476D02*
X124568990Y-107142857D01*
X124568990Y-107142857D02*
X124473752Y-107095238D01*
X124711847Y-108523809D02*
X124045180Y-108523809D01*
X125092800Y-108285714D02*
X124378514Y-108047619D01*
X124378514Y-108047619D02*
X124378514Y-108666666D01*
X124568990Y-109380952D02*
X124521371Y-109523809D01*
X124521371Y-109523809D02*
X124473752Y-109571428D01*
X124473752Y-109571428D02*
X124378514Y-109619047D01*
X124378514Y-109619047D02*
X124235657Y-109619047D01*
X124235657Y-109619047D02*
X124140419Y-109571428D01*
X124140419Y-109571428D02*
X124092800Y-109523809D01*
X124092800Y-109523809D02*
X124045180Y-109428571D01*
X124045180Y-109428571D02*
X124045180Y-109047619D01*
X124045180Y-109047619D02*
X125045180Y-109047619D01*
X125045180Y-109047619D02*
X125045180Y-109380952D01*
X125045180Y-109380952D02*
X124997561Y-109476190D01*
X124997561Y-109476190D02*
X124949942Y-109523809D01*
X124949942Y-109523809D02*
X124854704Y-109571428D01*
X124854704Y-109571428D02*
X124759466Y-109571428D01*
X124759466Y-109571428D02*
X124664228Y-109523809D01*
X124664228Y-109523809D02*
X124616609Y-109476190D01*
X124616609Y-109476190D02*
X124568990Y-109380952D01*
X124568990Y-109380952D02*
X124568990Y-109047619D01*
X124045180Y-110047619D02*
X125045180Y-110047619D01*
X125045180Y-110047619D02*
X125045180Y-110428571D01*
X125045180Y-110428571D02*
X124997561Y-110523809D01*
X124997561Y-110523809D02*
X124949942Y-110571428D01*
X124949942Y-110571428D02*
X124854704Y-110619047D01*
X124854704Y-110619047D02*
X124711847Y-110619047D01*
X124711847Y-110619047D02*
X124616609Y-110571428D01*
X124616609Y-110571428D02*
X124568990Y-110523809D01*
X124568990Y-110523809D02*
X124521371Y-110428571D01*
X124521371Y-110428571D02*
X124521371Y-110047619D01*
X124045180Y-111571428D02*
X124045180Y-111000000D01*
X124045180Y-111285714D02*
X125045180Y-111285714D01*
X125045180Y-111285714D02*
X124902323Y-111190476D01*
X124902323Y-111190476D02*
X124807085Y-111095238D01*
X124807085Y-111095238D02*
X124759466Y-111000000D01*
X124997561Y-112523809D02*
X125045180Y-112428571D01*
X125045180Y-112428571D02*
X125045180Y-112285714D01*
X125045180Y-112285714D02*
X124997561Y-112142857D01*
X124997561Y-112142857D02*
X124902323Y-112047619D01*
X124902323Y-112047619D02*
X124807085Y-112000000D01*
X124807085Y-112000000D02*
X124616609Y-111952381D01*
X124616609Y-111952381D02*
X124473752Y-111952381D01*
X124473752Y-111952381D02*
X124283276Y-112000000D01*
X124283276Y-112000000D02*
X124188038Y-112047619D01*
X124188038Y-112047619D02*
X124092800Y-112142857D01*
X124092800Y-112142857D02*
X124045180Y-112285714D01*
X124045180Y-112285714D02*
X124045180Y-112380952D01*
X124045180Y-112380952D02*
X124092800Y-112523809D01*
X124092800Y-112523809D02*
X124140419Y-112571428D01*
X124140419Y-112571428D02*
X124473752Y-112571428D01*
X124473752Y-112571428D02*
X124473752Y-112380952D01*
X124045180Y-113523809D02*
X124045180Y-112952381D01*
X124045180Y-113238095D02*
X125045180Y-113238095D01*
X125045180Y-113238095D02*
X124902323Y-113142857D01*
X124902323Y-113142857D02*
X124807085Y-113047619D01*
X124807085Y-113047619D02*
X124759466Y-112952381D01*
X87954819Y-101333333D02*
X88669104Y-101333333D01*
X88669104Y-101333333D02*
X88811961Y-101380952D01*
X88811961Y-101380952D02*
X88907200Y-101476190D01*
X88907200Y-101476190D02*
X88954819Y-101619047D01*
X88954819Y-101619047D02*
X88954819Y-101714285D01*
X87954819Y-100952380D02*
X87954819Y-100333333D01*
X87954819Y-100333333D02*
X88335771Y-100666666D01*
X88335771Y-100666666D02*
X88335771Y-100523809D01*
X88335771Y-100523809D02*
X88383390Y-100428571D01*
X88383390Y-100428571D02*
X88431009Y-100380952D01*
X88431009Y-100380952D02*
X88526247Y-100333333D01*
X88526247Y-100333333D02*
X88764342Y-100333333D01*
X88764342Y-100333333D02*
X88859580Y-100380952D01*
X88859580Y-100380952D02*
X88907200Y-100428571D01*
X88907200Y-100428571D02*
X88954819Y-100523809D01*
X88954819Y-100523809D02*
X88954819Y-100809523D01*
X88954819Y-100809523D02*
X88907200Y-100904761D01*
X88907200Y-100904761D02*
X88859580Y-100952380D01*
X134666666Y-75099819D02*
X134666666Y-75814104D01*
X134666666Y-75814104D02*
X134619047Y-75956961D01*
X134619047Y-75956961D02*
X134523809Y-76052200D01*
X134523809Y-76052200D02*
X134380952Y-76099819D01*
X134380952Y-76099819D02*
X134285714Y-76099819D01*
X135047619Y-75099819D02*
X135714285Y-75099819D01*
X135714285Y-75099819D02*
X135285714Y-76099819D01*
X154666666Y-83454819D02*
X154666666Y-84169104D01*
X154666666Y-84169104D02*
X154619047Y-84311961D01*
X154619047Y-84311961D02*
X154523809Y-84407200D01*
X154523809Y-84407200D02*
X154380952Y-84454819D01*
X154380952Y-84454819D02*
X154285714Y-84454819D01*
X155619047Y-83454819D02*
X155142857Y-83454819D01*
X155142857Y-83454819D02*
X155095238Y-83931009D01*
X155095238Y-83931009D02*
X155142857Y-83883390D01*
X155142857Y-83883390D02*
X155238095Y-83835771D01*
X155238095Y-83835771D02*
X155476190Y-83835771D01*
X155476190Y-83835771D02*
X155571428Y-83883390D01*
X155571428Y-83883390D02*
X155619047Y-83931009D01*
X155619047Y-83931009D02*
X155666666Y-84026247D01*
X155666666Y-84026247D02*
X155666666Y-84264342D01*
X155666666Y-84264342D02*
X155619047Y-84359580D01*
X155619047Y-84359580D02*
X155571428Y-84407200D01*
X155571428Y-84407200D02*
X155476190Y-84454819D01*
X155476190Y-84454819D02*
X155238095Y-84454819D01*
X155238095Y-84454819D02*
X155142857Y-84407200D01*
X155142857Y-84407200D02*
X155095238Y-84359580D01*
X154666666Y-97954819D02*
X154666666Y-98669104D01*
X154666666Y-98669104D02*
X154619047Y-98811961D01*
X154619047Y-98811961D02*
X154523809Y-98907200D01*
X154523809Y-98907200D02*
X154380952Y-98954819D01*
X154380952Y-98954819D02*
X154285714Y-98954819D01*
X155571428Y-97954819D02*
X155380952Y-97954819D01*
X155380952Y-97954819D02*
X155285714Y-98002438D01*
X155285714Y-98002438D02*
X155238095Y-98050057D01*
X155238095Y-98050057D02*
X155142857Y-98192914D01*
X155142857Y-98192914D02*
X155095238Y-98383390D01*
X155095238Y-98383390D02*
X155095238Y-98764342D01*
X155095238Y-98764342D02*
X155142857Y-98859580D01*
X155142857Y-98859580D02*
X155190476Y-98907200D01*
X155190476Y-98907200D02*
X155285714Y-98954819D01*
X155285714Y-98954819D02*
X155476190Y-98954819D01*
X155476190Y-98954819D02*
X155571428Y-98907200D01*
X155571428Y-98907200D02*
X155619047Y-98859580D01*
X155619047Y-98859580D02*
X155666666Y-98764342D01*
X155666666Y-98764342D02*
X155666666Y-98526247D01*
X155666666Y-98526247D02*
X155619047Y-98431009D01*
X155619047Y-98431009D02*
X155571428Y-98383390D01*
X155571428Y-98383390D02*
X155476190Y-98335771D01*
X155476190Y-98335771D02*
X155285714Y-98335771D01*
X155285714Y-98335771D02*
X155190476Y-98383390D01*
X155190476Y-98383390D02*
X155142857Y-98431009D01*
X155142857Y-98431009D02*
X155095238Y-98526247D01*
X106523333Y-101454819D02*
X106190000Y-100978628D01*
X105951905Y-101454819D02*
X105951905Y-100454819D01*
X105951905Y-100454819D02*
X106332857Y-100454819D01*
X106332857Y-100454819D02*
X106428095Y-100502438D01*
X106428095Y-100502438D02*
X106475714Y-100550057D01*
X106475714Y-100550057D02*
X106523333Y-100645295D01*
X106523333Y-100645295D02*
X106523333Y-100788152D01*
X106523333Y-100788152D02*
X106475714Y-100883390D01*
X106475714Y-100883390D02*
X106428095Y-100931009D01*
X106428095Y-100931009D02*
X106332857Y-100978628D01*
X106332857Y-100978628D02*
X105951905Y-100978628D01*
X106904286Y-100550057D02*
X106951905Y-100502438D01*
X106951905Y-100502438D02*
X107047143Y-100454819D01*
X107047143Y-100454819D02*
X107285238Y-100454819D01*
X107285238Y-100454819D02*
X107380476Y-100502438D01*
X107380476Y-100502438D02*
X107428095Y-100550057D01*
X107428095Y-100550057D02*
X107475714Y-100645295D01*
X107475714Y-100645295D02*
X107475714Y-100740533D01*
X107475714Y-100740533D02*
X107428095Y-100883390D01*
X107428095Y-100883390D02*
X106856667Y-101454819D01*
X106856667Y-101454819D02*
X107475714Y-101454819D01*
X97256905Y-86994819D02*
X97256905Y-85994819D01*
X97256905Y-85994819D02*
X97495000Y-85994819D01*
X97495000Y-85994819D02*
X97637857Y-86042438D01*
X97637857Y-86042438D02*
X97733095Y-86137676D01*
X97733095Y-86137676D02*
X97780714Y-86232914D01*
X97780714Y-86232914D02*
X97828333Y-86423390D01*
X97828333Y-86423390D02*
X97828333Y-86566247D01*
X97828333Y-86566247D02*
X97780714Y-86756723D01*
X97780714Y-86756723D02*
X97733095Y-86851961D01*
X97733095Y-86851961D02*
X97637857Y-86947200D01*
X97637857Y-86947200D02*
X97495000Y-86994819D01*
X97495000Y-86994819D02*
X97256905Y-86994819D01*
X98209286Y-86090057D02*
X98256905Y-86042438D01*
X98256905Y-86042438D02*
X98352143Y-85994819D01*
X98352143Y-85994819D02*
X98590238Y-85994819D01*
X98590238Y-85994819D02*
X98685476Y-86042438D01*
X98685476Y-86042438D02*
X98733095Y-86090057D01*
X98733095Y-86090057D02*
X98780714Y-86185295D01*
X98780714Y-86185295D02*
X98780714Y-86280533D01*
X98780714Y-86280533D02*
X98733095Y-86423390D01*
X98733095Y-86423390D02*
X98161667Y-86994819D01*
X98161667Y-86994819D02*
X98780714Y-86994819D01*
X106523333Y-104954819D02*
X106190000Y-104478628D01*
X105951905Y-104954819D02*
X105951905Y-103954819D01*
X105951905Y-103954819D02*
X106332857Y-103954819D01*
X106332857Y-103954819D02*
X106428095Y-104002438D01*
X106428095Y-104002438D02*
X106475714Y-104050057D01*
X106475714Y-104050057D02*
X106523333Y-104145295D01*
X106523333Y-104145295D02*
X106523333Y-104288152D01*
X106523333Y-104288152D02*
X106475714Y-104383390D01*
X106475714Y-104383390D02*
X106428095Y-104431009D01*
X106428095Y-104431009D02*
X106332857Y-104478628D01*
X106332857Y-104478628D02*
X105951905Y-104478628D01*
X107475714Y-104954819D02*
X106904286Y-104954819D01*
X107190000Y-104954819D02*
X107190000Y-103954819D01*
X107190000Y-103954819D02*
X107094762Y-104097676D01*
X107094762Y-104097676D02*
X106999524Y-104192914D01*
X106999524Y-104192914D02*
X106904286Y-104240533D01*
X97256905Y-97494819D02*
X97256905Y-96494819D01*
X97256905Y-96494819D02*
X97495000Y-96494819D01*
X97495000Y-96494819D02*
X97637857Y-96542438D01*
X97637857Y-96542438D02*
X97733095Y-96637676D01*
X97733095Y-96637676D02*
X97780714Y-96732914D01*
X97780714Y-96732914D02*
X97828333Y-96923390D01*
X97828333Y-96923390D02*
X97828333Y-97066247D01*
X97828333Y-97066247D02*
X97780714Y-97256723D01*
X97780714Y-97256723D02*
X97733095Y-97351961D01*
X97733095Y-97351961D02*
X97637857Y-97447200D01*
X97637857Y-97447200D02*
X97495000Y-97494819D01*
X97495000Y-97494819D02*
X97256905Y-97494819D01*
X98161667Y-96494819D02*
X98780714Y-96494819D01*
X98780714Y-96494819D02*
X98447381Y-96875771D01*
X98447381Y-96875771D02*
X98590238Y-96875771D01*
X98590238Y-96875771D02*
X98685476Y-96923390D01*
X98685476Y-96923390D02*
X98733095Y-96971009D01*
X98733095Y-96971009D02*
X98780714Y-97066247D01*
X98780714Y-97066247D02*
X98780714Y-97304342D01*
X98780714Y-97304342D02*
X98733095Y-97399580D01*
X98733095Y-97399580D02*
X98685476Y-97447200D01*
X98685476Y-97447200D02*
X98590238Y-97494819D01*
X98590238Y-97494819D02*
X98304524Y-97494819D01*
X98304524Y-97494819D02*
X98209286Y-97447200D01*
X98209286Y-97447200D02*
X98161667Y-97399580D01*
X97256905Y-75994819D02*
X97256905Y-74994819D01*
X97256905Y-74994819D02*
X97495000Y-74994819D01*
X97495000Y-74994819D02*
X97637857Y-75042438D01*
X97637857Y-75042438D02*
X97733095Y-75137676D01*
X97733095Y-75137676D02*
X97780714Y-75232914D01*
X97780714Y-75232914D02*
X97828333Y-75423390D01*
X97828333Y-75423390D02*
X97828333Y-75566247D01*
X97828333Y-75566247D02*
X97780714Y-75756723D01*
X97780714Y-75756723D02*
X97733095Y-75851961D01*
X97733095Y-75851961D02*
X97637857Y-75947200D01*
X97637857Y-75947200D02*
X97495000Y-75994819D01*
X97495000Y-75994819D02*
X97256905Y-75994819D01*
X98780714Y-75994819D02*
X98209286Y-75994819D01*
X98495000Y-75994819D02*
X98495000Y-74994819D01*
X98495000Y-74994819D02*
X98399762Y-75137676D01*
X98399762Y-75137676D02*
X98304524Y-75232914D01*
X98304524Y-75232914D02*
X98209286Y-75280533D01*
X106523333Y-94454819D02*
X106190000Y-93978628D01*
X105951905Y-94454819D02*
X105951905Y-93454819D01*
X105951905Y-93454819D02*
X106332857Y-93454819D01*
X106332857Y-93454819D02*
X106428095Y-93502438D01*
X106428095Y-93502438D02*
X106475714Y-93550057D01*
X106475714Y-93550057D02*
X106523333Y-93645295D01*
X106523333Y-93645295D02*
X106523333Y-93788152D01*
X106523333Y-93788152D02*
X106475714Y-93883390D01*
X106475714Y-93883390D02*
X106428095Y-93931009D01*
X106428095Y-93931009D02*
X106332857Y-93978628D01*
X106332857Y-93978628D02*
X105951905Y-93978628D01*
X107380476Y-93788152D02*
X107380476Y-94454819D01*
X107142381Y-93407200D02*
X106904286Y-94121485D01*
X106904286Y-94121485D02*
X107523333Y-94121485D01*
X106523333Y-97954819D02*
X106190000Y-97478628D01*
X105951905Y-97954819D02*
X105951905Y-96954819D01*
X105951905Y-96954819D02*
X106332857Y-96954819D01*
X106332857Y-96954819D02*
X106428095Y-97002438D01*
X106428095Y-97002438D02*
X106475714Y-97050057D01*
X106475714Y-97050057D02*
X106523333Y-97145295D01*
X106523333Y-97145295D02*
X106523333Y-97288152D01*
X106523333Y-97288152D02*
X106475714Y-97383390D01*
X106475714Y-97383390D02*
X106428095Y-97431009D01*
X106428095Y-97431009D02*
X106332857Y-97478628D01*
X106332857Y-97478628D02*
X105951905Y-97478628D01*
X106856667Y-96954819D02*
X107475714Y-96954819D01*
X107475714Y-96954819D02*
X107142381Y-97335771D01*
X107142381Y-97335771D02*
X107285238Y-97335771D01*
X107285238Y-97335771D02*
X107380476Y-97383390D01*
X107380476Y-97383390D02*
X107428095Y-97431009D01*
X107428095Y-97431009D02*
X107475714Y-97526247D01*
X107475714Y-97526247D02*
X107475714Y-97764342D01*
X107475714Y-97764342D02*
X107428095Y-97859580D01*
X107428095Y-97859580D02*
X107380476Y-97907200D01*
X107380476Y-97907200D02*
X107285238Y-97954819D01*
X107285238Y-97954819D02*
X106999524Y-97954819D01*
X106999524Y-97954819D02*
X106904286Y-97907200D01*
X106904286Y-97907200D02*
X106856667Y-97859580D01*
X87954819Y-111833333D02*
X88669104Y-111833333D01*
X88669104Y-111833333D02*
X88811961Y-111880952D01*
X88811961Y-111880952D02*
X88907200Y-111976190D01*
X88907200Y-111976190D02*
X88954819Y-112119047D01*
X88954819Y-112119047D02*
X88954819Y-112214285D01*
X88288152Y-110928571D02*
X88954819Y-110928571D01*
X87907200Y-111166666D02*
X88621485Y-111404761D01*
X88621485Y-111404761D02*
X88621485Y-110785714D01*
X87954819Y-90833333D02*
X88669104Y-90833333D01*
X88669104Y-90833333D02*
X88811961Y-90880952D01*
X88811961Y-90880952D02*
X88907200Y-90976190D01*
X88907200Y-90976190D02*
X88954819Y-91119047D01*
X88954819Y-91119047D02*
X88954819Y-91214285D01*
X88050057Y-90404761D02*
X88002438Y-90357142D01*
X88002438Y-90357142D02*
X87954819Y-90261904D01*
X87954819Y-90261904D02*
X87954819Y-90023809D01*
X87954819Y-90023809D02*
X88002438Y-89928571D01*
X88002438Y-89928571D02*
X88050057Y-89880952D01*
X88050057Y-89880952D02*
X88145295Y-89833333D01*
X88145295Y-89833333D02*
X88240533Y-89833333D01*
X88240533Y-89833333D02*
X88383390Y-89880952D01*
X88383390Y-89880952D02*
X88954819Y-90452380D01*
X88954819Y-90452380D02*
X88954819Y-89833333D01*
X109666666Y-74954819D02*
X109666666Y-75669104D01*
X109666666Y-75669104D02*
X109619047Y-75811961D01*
X109619047Y-75811961D02*
X109523809Y-75907200D01*
X109523809Y-75907200D02*
X109380952Y-75954819D01*
X109380952Y-75954819D02*
X109285714Y-75954819D01*
X110285714Y-75383390D02*
X110190476Y-75335771D01*
X110190476Y-75335771D02*
X110142857Y-75288152D01*
X110142857Y-75288152D02*
X110095238Y-75192914D01*
X110095238Y-75192914D02*
X110095238Y-75145295D01*
X110095238Y-75145295D02*
X110142857Y-75050057D01*
X110142857Y-75050057D02*
X110190476Y-75002438D01*
X110190476Y-75002438D02*
X110285714Y-74954819D01*
X110285714Y-74954819D02*
X110476190Y-74954819D01*
X110476190Y-74954819D02*
X110571428Y-75002438D01*
X110571428Y-75002438D02*
X110619047Y-75050057D01*
X110619047Y-75050057D02*
X110666666Y-75145295D01*
X110666666Y-75145295D02*
X110666666Y-75192914D01*
X110666666Y-75192914D02*
X110619047Y-75288152D01*
X110619047Y-75288152D02*
X110571428Y-75335771D01*
X110571428Y-75335771D02*
X110476190Y-75383390D01*
X110476190Y-75383390D02*
X110285714Y-75383390D01*
X110285714Y-75383390D02*
X110190476Y-75431009D01*
X110190476Y-75431009D02*
X110142857Y-75478628D01*
X110142857Y-75478628D02*
X110095238Y-75573866D01*
X110095238Y-75573866D02*
X110095238Y-75764342D01*
X110095238Y-75764342D02*
X110142857Y-75859580D01*
X110142857Y-75859580D02*
X110190476Y-75907200D01*
X110190476Y-75907200D02*
X110285714Y-75954819D01*
X110285714Y-75954819D02*
X110476190Y-75954819D01*
X110476190Y-75954819D02*
X110571428Y-75907200D01*
X110571428Y-75907200D02*
X110619047Y-75859580D01*
X110619047Y-75859580D02*
X110666666Y-75764342D01*
X110666666Y-75764342D02*
X110666666Y-75573866D01*
X110666666Y-75573866D02*
X110619047Y-75478628D01*
X110619047Y-75478628D02*
X110571428Y-75431009D01*
X110571428Y-75431009D02*
X110476190Y-75383390D01*
X87954819Y-79833333D02*
X88669104Y-79833333D01*
X88669104Y-79833333D02*
X88811961Y-79880952D01*
X88811961Y-79880952D02*
X88907200Y-79976190D01*
X88907200Y-79976190D02*
X88954819Y-80119047D01*
X88954819Y-80119047D02*
X88954819Y-80214285D01*
X88954819Y-78833333D02*
X88954819Y-79404761D01*
X88954819Y-79119047D02*
X87954819Y-79119047D01*
X87954819Y-79119047D02*
X88097676Y-79214285D01*
X88097676Y-79214285D02*
X88192914Y-79309523D01*
X88192914Y-79309523D02*
X88240533Y-79404761D01*
X97256905Y-107994819D02*
X97256905Y-106994819D01*
X97256905Y-106994819D02*
X97495000Y-106994819D01*
X97495000Y-106994819D02*
X97637857Y-107042438D01*
X97637857Y-107042438D02*
X97733095Y-107137676D01*
X97733095Y-107137676D02*
X97780714Y-107232914D01*
X97780714Y-107232914D02*
X97828333Y-107423390D01*
X97828333Y-107423390D02*
X97828333Y-107566247D01*
X97828333Y-107566247D02*
X97780714Y-107756723D01*
X97780714Y-107756723D02*
X97733095Y-107851961D01*
X97733095Y-107851961D02*
X97637857Y-107947200D01*
X97637857Y-107947200D02*
X97495000Y-107994819D01*
X97495000Y-107994819D02*
X97256905Y-107994819D01*
X98685476Y-107328152D02*
X98685476Y-107994819D01*
X98447381Y-106947200D02*
X98209286Y-107661485D01*
X98209286Y-107661485D02*
X98828333Y-107661485D01*
D14*
%TO.C,TD62064BP1G1*%
X112550000Y-97490000D02*
X112550000Y-118050000D01*
X112550000Y-118050000D02*
X122830000Y-118050000D01*
X115040000Y-97550000D02*
X115040000Y-117990000D01*
X115040000Y-117990000D02*
X120340000Y-117990000D01*
X116690000Y-97550000D02*
X115040000Y-97550000D01*
X120340000Y-97550000D02*
X118690000Y-97550000D01*
X120340000Y-117990000D02*
X120340000Y-97550000D01*
X122830000Y-97490000D02*
X112550000Y-97490000D01*
X122830000Y-118050000D02*
X122830000Y-97490000D01*
X118690000Y-97550000D02*
G75*
G02*
X116690000Y-97550000I-1000000J0D01*
G01*
%TO.C,J3*%
X79140000Y-97190000D02*
X90860000Y-97190000D01*
X79140000Y-101000000D02*
X79140000Y-97190000D01*
X79140000Y-101000000D02*
X79140000Y-104810000D01*
X79140000Y-104810000D02*
X90860000Y-104810000D01*
X79750000Y-99500000D02*
X79750000Y-100000000D01*
X79750000Y-100000000D02*
X85250000Y-100000000D01*
X79750000Y-102000000D02*
X79750000Y-102500000D01*
X79750000Y-102500000D02*
X85250000Y-102500000D01*
X85250000Y-99500000D02*
X79750000Y-99500000D01*
X85250000Y-100000000D02*
X85250000Y-99500000D01*
X85250000Y-102000000D02*
X79750000Y-102000000D01*
X85250000Y-102500000D02*
X85250000Y-102000000D01*
X88350000Y-99750000D02*
X88950000Y-99450000D01*
X88950000Y-99450000D02*
X88950000Y-100050000D01*
X88950000Y-100050000D02*
X88350000Y-99750000D01*
X90860000Y-97190000D02*
X90860000Y-98610000D01*
X90860000Y-98610000D02*
X86360000Y-98610000D01*
X90860000Y-103390000D02*
X86360000Y-103390000D01*
X90860000Y-104810000D02*
X90860000Y-103390000D01*
%TO.C,J7*%
X133670000Y-76645000D02*
X135000000Y-76645000D01*
X133670000Y-77975000D02*
X133670000Y-76645000D01*
X133670000Y-79245000D02*
X133670000Y-84385000D01*
X133670000Y-79245000D02*
X136330000Y-79245000D01*
X133670000Y-84385000D02*
X136330000Y-84385000D01*
X136330000Y-79245000D02*
X136330000Y-84385000D01*
%TO.C,J5*%
X149140000Y-85440000D02*
X149140000Y-86860000D01*
X149140000Y-86860000D02*
X153640000Y-86860000D01*
X149140000Y-91640000D02*
X153640000Y-91640000D01*
X149140000Y-93060000D02*
X149140000Y-91640000D01*
X151050000Y-90200000D02*
X151650000Y-90500000D01*
X151050000Y-90800000D02*
X151050000Y-90200000D01*
X151650000Y-90500000D02*
X151050000Y-90800000D01*
X154750000Y-87750000D02*
X154750000Y-88250000D01*
X154750000Y-88250000D02*
X160250000Y-88250000D01*
X154750000Y-90250000D02*
X154750000Y-90750000D01*
X154750000Y-90750000D02*
X160250000Y-90750000D01*
X160250000Y-87750000D02*
X154750000Y-87750000D01*
X160250000Y-88250000D02*
X160250000Y-87750000D01*
X160250000Y-90250000D02*
X154750000Y-90250000D01*
X160250000Y-90750000D02*
X160250000Y-90250000D01*
X160860000Y-85440000D02*
X149140000Y-85440000D01*
X160860000Y-89250000D02*
X160860000Y-85440000D01*
X160860000Y-89250000D02*
X160860000Y-93060000D01*
X160860000Y-93060000D02*
X149140000Y-93060000D01*
%TO.C,J6*%
X149140000Y-99690000D02*
X149140000Y-101110000D01*
X149140000Y-101110000D02*
X153640000Y-101110000D01*
X149140000Y-110890000D02*
X153640000Y-110890000D01*
X149140000Y-112310000D02*
X149140000Y-110890000D01*
X151050000Y-109450000D02*
X151650000Y-109750000D01*
X151050000Y-110050000D02*
X151050000Y-109450000D01*
X151650000Y-109750000D02*
X151050000Y-110050000D01*
X154750000Y-102000000D02*
X154750000Y-102500000D01*
X154750000Y-102500000D02*
X160250000Y-102500000D01*
X154750000Y-104500000D02*
X154750000Y-105000000D01*
X154750000Y-105000000D02*
X160250000Y-105000000D01*
X154750000Y-107000000D02*
X154750000Y-107500000D01*
X154750000Y-107500000D02*
X160250000Y-107500000D01*
X154750000Y-109500000D02*
X154750000Y-110000000D01*
X154750000Y-110000000D02*
X160250000Y-110000000D01*
X160250000Y-102000000D02*
X154750000Y-102000000D01*
X160250000Y-102500000D02*
X160250000Y-102000000D01*
X160250000Y-104500000D02*
X154750000Y-104500000D01*
X160250000Y-105000000D02*
X160250000Y-104500000D01*
X160250000Y-107000000D02*
X154750000Y-107000000D01*
X160250000Y-107500000D02*
X160250000Y-107000000D01*
X160250000Y-109500000D02*
X154750000Y-109500000D01*
X160250000Y-110000000D02*
X160250000Y-109500000D01*
X160860000Y-99690000D02*
X149140000Y-99690000D01*
X160860000Y-106000000D02*
X160860000Y-99690000D01*
X160860000Y-106000000D02*
X160860000Y-112310000D01*
X160860000Y-112310000D02*
X149140000Y-112310000D01*
%TO.C,R2*%
X103420000Y-99630000D02*
X109960000Y-99630000D01*
X103420000Y-99960000D02*
X103420000Y-99630000D01*
X103420000Y-102040000D02*
X103420000Y-102370000D01*
X103420000Y-102370000D02*
X109960000Y-102370000D01*
X109960000Y-99630000D02*
X109960000Y-99960000D01*
X109960000Y-102370000D02*
X109960000Y-102040000D01*
%TO.C,D2*%
X95435000Y-88955000D02*
X95435000Y-92045000D01*
X95435000Y-88955170D02*
G75*
G02*
X100985000Y-90500462I2560000J-1544830D01*
G01*
X100985000Y-90499538D02*
G75*
G02*
X95435000Y-92044830I-2990000J-462D01*
G01*
X100495000Y-90500000D02*
G75*
G02*
X95495000Y-90500000I-2500000J0D01*
G01*
X95495000Y-90500000D02*
G75*
G02*
X100495000Y-90500000I2500000J0D01*
G01*
%TO.C,R1*%
X103420000Y-103130000D02*
X109960000Y-103130000D01*
X103420000Y-103460000D02*
X103420000Y-103130000D01*
X103420000Y-105540000D02*
X103420000Y-105870000D01*
X103420000Y-105870000D02*
X109960000Y-105870000D01*
X109960000Y-103130000D02*
X109960000Y-103460000D01*
X109960000Y-105870000D02*
X109960000Y-105540000D01*
%TO.C,D3*%
X95435000Y-99455000D02*
X95435000Y-102545000D01*
X95435000Y-99455170D02*
G75*
G02*
X100985000Y-101000462I2560000J-1544830D01*
G01*
X100985000Y-100999538D02*
G75*
G02*
X95435000Y-102544830I-2990000J-462D01*
G01*
X100495000Y-101000000D02*
G75*
G02*
X95495000Y-101000000I-2500000J0D01*
G01*
X95495000Y-101000000D02*
G75*
G02*
X100495000Y-101000000I2500000J0D01*
G01*
%TO.C,D1*%
X95435000Y-77955000D02*
X95435000Y-81045000D01*
X95435000Y-77955170D02*
G75*
G02*
X100985000Y-79500462I2560000J-1544830D01*
G01*
X100985000Y-79499538D02*
G75*
G02*
X95435000Y-81044830I-2990000J-462D01*
G01*
X100495000Y-79500000D02*
G75*
G02*
X95495000Y-79500000I-2500000J0D01*
G01*
X95495000Y-79500000D02*
G75*
G02*
X100495000Y-79500000I2500000J0D01*
G01*
%TO.C,R4*%
X103420000Y-92630000D02*
X109960000Y-92630000D01*
X103420000Y-92960000D02*
X103420000Y-92630000D01*
X103420000Y-95040000D02*
X103420000Y-95370000D01*
X103420000Y-95370000D02*
X109960000Y-95370000D01*
X109960000Y-92630000D02*
X109960000Y-92960000D01*
X109960000Y-95370000D02*
X109960000Y-95040000D01*
%TO.C,R3*%
X103420000Y-96130000D02*
X109960000Y-96130000D01*
X103420000Y-96460000D02*
X103420000Y-96130000D01*
X103420000Y-98540000D02*
X103420000Y-98870000D01*
X103420000Y-98870000D02*
X109960000Y-98870000D01*
X109960000Y-96130000D02*
X109960000Y-96460000D01*
X109960000Y-98870000D02*
X109960000Y-98540000D01*
%TO.C,J4*%
X79140000Y-107690000D02*
X90860000Y-107690000D01*
X79140000Y-111500000D02*
X79140000Y-107690000D01*
X79140000Y-111500000D02*
X79140000Y-115310000D01*
X79140000Y-115310000D02*
X90860000Y-115310000D01*
X79750000Y-110000000D02*
X79750000Y-110500000D01*
X79750000Y-110500000D02*
X85250000Y-110500000D01*
X79750000Y-112500000D02*
X79750000Y-113000000D01*
X79750000Y-113000000D02*
X85250000Y-113000000D01*
X85250000Y-110000000D02*
X79750000Y-110000000D01*
X85250000Y-110500000D02*
X85250000Y-110000000D01*
X85250000Y-112500000D02*
X79750000Y-112500000D01*
X85250000Y-113000000D02*
X85250000Y-112500000D01*
X88350000Y-110250000D02*
X88950000Y-109950000D01*
X88950000Y-109950000D02*
X88950000Y-110550000D01*
X88950000Y-110550000D02*
X88350000Y-110250000D01*
X90860000Y-107690000D02*
X90860000Y-109110000D01*
X90860000Y-109110000D02*
X86360000Y-109110000D01*
X90860000Y-113890000D02*
X86360000Y-113890000D01*
X90860000Y-115310000D02*
X90860000Y-113890000D01*
%TO.C,J2*%
X79140000Y-86690000D02*
X90860000Y-86690000D01*
X79140000Y-90500000D02*
X79140000Y-86690000D01*
X79140000Y-90500000D02*
X79140000Y-94310000D01*
X79140000Y-94310000D02*
X90860000Y-94310000D01*
X79750000Y-89000000D02*
X79750000Y-89500000D01*
X79750000Y-89500000D02*
X85250000Y-89500000D01*
X79750000Y-91500000D02*
X79750000Y-92000000D01*
X79750000Y-92000000D02*
X85250000Y-92000000D01*
X85250000Y-89000000D02*
X79750000Y-89000000D01*
X85250000Y-89500000D02*
X85250000Y-89000000D01*
X85250000Y-91500000D02*
X79750000Y-91500000D01*
X85250000Y-92000000D02*
X85250000Y-91500000D01*
X88350000Y-89250000D02*
X88950000Y-88950000D01*
X88950000Y-88950000D02*
X88950000Y-89550000D01*
X88950000Y-89550000D02*
X88350000Y-89250000D01*
X90860000Y-86690000D02*
X90860000Y-88110000D01*
X90860000Y-88110000D02*
X86360000Y-88110000D01*
X90860000Y-92890000D02*
X86360000Y-92890000D01*
X90860000Y-94310000D02*
X90860000Y-92890000D01*
%TO.C,J8*%
X108670000Y-81755000D02*
X108670000Y-76615000D01*
X111330000Y-76615000D02*
X108670000Y-76615000D01*
X111330000Y-81755000D02*
X108670000Y-81755000D01*
X111330000Y-81755000D02*
X111330000Y-76615000D01*
X111330000Y-83025000D02*
X111330000Y-84355000D01*
X111330000Y-84355000D02*
X110000000Y-84355000D01*
%TO.C,J1*%
X79140000Y-75690000D02*
X90860000Y-75690000D01*
X79140000Y-79500000D02*
X79140000Y-75690000D01*
X79140000Y-79500000D02*
X79140000Y-83310000D01*
X79140000Y-83310000D02*
X90860000Y-83310000D01*
X79750000Y-78000000D02*
X79750000Y-78500000D01*
X79750000Y-78500000D02*
X85250000Y-78500000D01*
X79750000Y-80500000D02*
X79750000Y-81000000D01*
X79750000Y-81000000D02*
X85250000Y-81000000D01*
X85250000Y-78000000D02*
X79750000Y-78000000D01*
X85250000Y-78500000D02*
X85250000Y-78000000D01*
X85250000Y-80500000D02*
X79750000Y-80500000D01*
X85250000Y-81000000D02*
X85250000Y-80500000D01*
X88350000Y-78250000D02*
X88950000Y-77950000D01*
X88950000Y-77950000D02*
X88950000Y-78550000D01*
X88950000Y-78550000D02*
X88350000Y-78250000D01*
X90860000Y-75690000D02*
X90860000Y-77110000D01*
X90860000Y-77110000D02*
X86360000Y-77110000D01*
X90860000Y-81890000D02*
X86360000Y-81890000D01*
X90860000Y-83310000D02*
X90860000Y-81890000D01*
%TO.C,D4*%
X95435000Y-109955000D02*
X95435000Y-113045000D01*
X95435000Y-109955170D02*
G75*
G02*
X100985000Y-111500462I2560000J-1544830D01*
G01*
X100985000Y-111499538D02*
G75*
G02*
X95435000Y-113044830I-2990000J-462D01*
G01*
X100495000Y-111500000D02*
G75*
G02*
X95495000Y-111500000I-2500000J0D01*
G01*
X95495000Y-111500000D02*
G75*
G02*
X100495000Y-111500000I2500000J0D01*
G01*
%TD*%
%LPC*%
D15*
%TO.C,TD62064BP1G1*%
X113880000Y-98880000D03*
D16*
X113880000Y-101420000D03*
X113880000Y-103960000D03*
X113880000Y-106500000D03*
X113880000Y-109040000D03*
X113880000Y-111580000D03*
X113880000Y-114120000D03*
X113880000Y-116660000D03*
X121500000Y-116660000D03*
X121500000Y-114120000D03*
X121500000Y-111580000D03*
X121500000Y-109040000D03*
X121500000Y-106500000D03*
X121500000Y-103960000D03*
X121500000Y-101420000D03*
X121500000Y-98880000D03*
%TD*%
D17*
%TO.C,J3*%
X86850000Y-99750000D03*
D18*
X86850000Y-102250000D03*
%TD*%
D19*
%TO.C,J7*%
X135000000Y-77975000D03*
D20*
X135000000Y-80515000D03*
X135000000Y-83055000D03*
%TD*%
D21*
%TO.C,J5*%
X153150000Y-90500000D03*
D18*
X153150000Y-88000000D03*
%TD*%
D22*
%TO.C,J6*%
X153150000Y-109750000D03*
D23*
X153150000Y-107250000D03*
X153150000Y-104750000D03*
X153150000Y-102250000D03*
%TD*%
D24*
%TO.C,R2*%
X102880000Y-101000000D03*
D16*
X110500000Y-101000000D03*
%TD*%
D25*
%TO.C,D2*%
X96725000Y-90500000D03*
D26*
X99265000Y-90500000D03*
%TD*%
D24*
%TO.C,R1*%
X102880000Y-104500000D03*
D16*
X110500000Y-104500000D03*
%TD*%
D25*
%TO.C,D3*%
X96725000Y-101000000D03*
D26*
X99265000Y-101000000D03*
%TD*%
D27*
%TO.C,REF\u002A\u002A*%
X156500000Y-120500000D03*
D28*
X156500000Y-120500000D03*
%TD*%
D25*
%TO.C,D1*%
X96725000Y-79500000D03*
D26*
X99265000Y-79500000D03*
%TD*%
D24*
%TO.C,R4*%
X102880000Y-94000000D03*
D16*
X110500000Y-94000000D03*
%TD*%
D24*
%TO.C,R3*%
X102880000Y-97500000D03*
D16*
X110500000Y-97500000D03*
%TD*%
D17*
%TO.C,J4*%
X86850000Y-110250000D03*
D18*
X86850000Y-112750000D03*
%TD*%
D27*
%TO.C,REF\u002A\u002A*%
X83000000Y-120500000D03*
D28*
X83000000Y-120500000D03*
%TD*%
D17*
%TO.C,J2*%
X86850000Y-89250000D03*
D18*
X86850000Y-91750000D03*
%TD*%
D27*
%TO.C,REF\u002A\u002A*%
X156500000Y-71500000D03*
D28*
X156500000Y-71500000D03*
%TD*%
D19*
%TO.C,J8*%
X110000000Y-83025000D03*
D20*
X110000000Y-80485000D03*
X110000000Y-77945000D03*
%TD*%
D17*
%TO.C,J1*%
X86850000Y-78250000D03*
D18*
X86850000Y-80750000D03*
%TD*%
D27*
%TO.C,REF\u002A\u002A*%
X83000000Y-71500000D03*
D28*
X83000000Y-71500000D03*
%TD*%
D25*
%TO.C,D4*%
X96725000Y-111500000D03*
D26*
X99265000Y-111500000D03*
%TD*%
%LPD*%
M02*
